<?xml version="1.0" encoding="UTF-8"?><svg id="Layer_2" xmlns="http://www.w3.org/2000/svg" viewBox="0 0 213.78 213.78"><defs><style>.cls-1{fill:#fff;}</style></defs><g id="Layer_1-2"><g><path class="cls-1" d="M96.72,113.36c0,6.37-5.21,11.58-11.57,11.58s-11.58-5.21-11.58-11.58,5.21-11.57,11.58-11.57,11.57,5.21,11.57,11.57Z"/><path class="cls-1" d="M140.2,113.36c0,6.37-5.21,11.58-11.58,11.58s-11.57-5.21-11.57-11.58,5.21-11.57,11.57-11.57,11.58,5.21,11.58,11.57Z"/><path class="cls-1" d="M182.45,31.32C163.13,11.94,136.44,0,106.92,0S50.64,11.94,31.32,31.32C11.94,50.64,0,77.41,0,106.85c0,59.1,47.82,106.92,106.92,106.92,29.52,0,56.21-12.01,75.53-31.32,19.39-19.32,31.32-46.08,31.32-75.6s-11.94-56.21-31.32-75.53Zm-44.49,126.89s-1.01,0-2.24-.22v-7.02c2.6-1.45,7.16-1.66,11.86-5.21,4.56-3.4,6.66-7.89,7.09-12.8-11.94,7.89-28.94,12.8-47.75,12.8s-35.88-4.92-47.82-12.8c.43,4.92,2.53,9.4,7.09,12.8,4.7,3.54,9.26,3.76,11.86,5.21v7.02c-1.23,.22-2.17,.22-2.17,.22-29.59,.87-43.12-18.88-43.12-21.27s8.03-47.96,13.67-60.91c5.43-12.44,36.68-20.04,38.56-20.55-16.06,8.97-17.94,14.4-17.15,17.07,10.92-4.99,24.38-7.96,39.07-7.96s28.07,2.97,38.99,7.96c.8-2.68-1.08-8.1-17.15-17.07,1.88,.51,33.13,8.1,38.56,20.55,5.64,12.95,13.67,58.45,13.67,60.91s-13.53,22.14-43.04,21.27Z"/></g></g></svg>