<?xml version="1.0" encoding="UTF-8"?><svg id="Layer_2" xmlns="http://www.w3.org/2000/svg" viewBox="0 0 213.78 213.78"><defs><style>.cls-1{fill:#fff;}</style></defs><g id="Layer_1-2"><g><polygon class="cls-1" points="106.92 114.52 67.93 70.39 145.84 70.39 106.92 114.52"/><path class="cls-1" d="M112.35,126.17l44.13-49.99v67.21H57.37V76.18l44.06,49.99,.58,.43c2.89,2.1,6.87,2.1,9.84,0l.51-.43Z"/><path class="cls-1" d="M182.45,31.32C163.13,11.94,136.44,0,106.92,0S50.64,11.94,31.32,31.32C11.94,50.64,0,77.41,0,106.85c0,59.1,47.82,106.92,106.92,106.92,29.52,0,56.21-12.01,75.53-31.32,19.39-19.32,31.32-46.08,31.32-75.6s-11.94-56.21-31.32-75.53Zm-14.18,115.53c0,4.63-3.76,8.39-8.32,8.39H53.9c-4.63,0-8.39-3.76-8.39-8.39V66.92c0-3.18,1.81-6,4.63-7.45,.65-.36,1.3-.58,2.03-.72,.58-.14,1.16-.22,1.74-.22h105.98c.58,0,1.16,.07,1.74,.22,.72,.14,1.37,.36,2.1,.72,2.82,1.45,4.56,4.27,4.56,7.45v79.94Z"/></g></g></svg>