<?xml version="1.0" encoding="UTF-8"?><svg id="Layer_2" xmlns="http://www.w3.org/2000/svg" viewBox="0 0 213.78 213.78"><defs><style>.cls-1{fill:#fff;}</style></defs><g id="Layer_1-2"><path class="cls-1" d="M182.48,31.3C163.11,11.97,136.43,0,106.89,0S50.67,11.97,31.3,31.3C11.97,50.63,0,77.39,0,106.89c0,59.04,47.85,106.89,106.89,106.89,29.54,0,56.22-11.97,75.59-31.3,19.33-19.33,31.3-46.09,31.3-75.59s-11.97-56.26-31.3-75.59Zm-31.85,35.33l-21.36-.04h-5.32c-1.72-.04-4.03,0-4.19,.04-1.25,.12-2.43,.51-3.44,1.25-1.02,.74-1.92,1.72-2.39,2.86-.27,.59-.43,1.17-.55,1.76-.12,.74-.12,.78-.12,3.05v17.84h32.28v23.32h-32.28v65.77h-26.6l-.43-42.76,.12-23.01h-23.2v-23.32h23.32l.04-17.84c.04-1.29,0-4.85,.59-7.63,.47-2.9,1.37-5.75,2.7-8.41,2.46-5.36,6.38-9.98,11.19-13.38,4.81-3.36,10.56-5.44,16.43-5.95,3.4-.23,4.66-.04,6.53,0l5.32,.2c7.12,.27,14.24,.86,21.36,1.88v24.37Z"/></g></svg>