<?xml version="1.0" encoding="UTF-8"?><svg id="Layer_2" xmlns="http://www.w3.org/2000/svg" viewBox="0 0 1292.16 516.24"><defs><style>.cls-1{fill:#fff;}.cls-2{fill:#717171;}.cls-3{fill:none;stroke:#8dc540;stroke-miterlimit:10;stroke-width:14.88px;}.cls-4{fill:#323232;}.cls-5{font-size:34.08px;}.cls-5,.cls-6,.cls-7{font-family:Calibri, Calibri;}.cls-6{font-size:124.76px;letter-spacing:-.03em;}.cls-8{fill:#050000;}.cls-9{letter-spacing:-.03em;}.cls-7{font-size:47.87px;}.cls-10{fill:#b4d491;}.cls-11{fill:#b5d689;}.cls-12{letter-spacing:-.12em;}.cls-13{letter-spacing:-.03em;}.cls-14{fill:#373737;}.cls-15{fill:#8dc640;}.cls-16{letter-spacing:-.02em;}.cls-17{fill:#8dc540;}.cls-18{fill:#a6c86c;}.cls-19{fill:#3c3c3c;}</style></defs><g id="Layer_1-2"><g><rect class="cls-17" x="564.63" y="361.56" width="727.53" height="134.59"/><text class="cls-6" transform="translate(768.13 460.17)"><tspan x="0" y="0">GN37jl</tspan></text><g><path class="cls-1" d="M657.23,66.32c0,1.13-.06,2.12-.18,2.98-.12,.86-.3,1.57-.53,2.14-.24,.56-.53,.96-.89,1.2-.36,.24-.74,.36-1.16,.36-.71,0-1.9-.56-3.56-1.69-1.66-1.13-3.89-2.37-6.68-3.74-2.79-1.37-6.13-2.61-10.02-3.74-3.89-1.13-8.5-1.69-13.85-1.69-6.35,0-12.05,1.16-17.1,3.47-5.05,2.32-9.32,5.52-12.82,9.62-3.5,4.1-6.19,8.96-8.06,14.6-1.87,5.64-2.8,11.75-2.8,18.34,0,7.36,1.02,13.89,3.07,19.59,2.05,5.7,4.88,10.51,8.5,14.43,3.62,3.92,7.94,6.89,12.96,8.9,5.02,2.02,10.52,3.03,16.52,3.03,3.56,0,7.17-.43,10.82-1.29,3.65-.86,7.05-2.15,10.2-3.87v-33.57h-26.71c-1.01,0-1.77-.5-2.27-1.51-.5-1.01-.76-2.58-.76-4.72,0-1.13,.06-2.09,.18-2.89,.12-.8,.31-1.45,.58-1.96,.27-.5,.58-.88,.94-1.11,.36-.24,.8-.36,1.34-.36h36.6c.65,0,1.31,.12,1.96,.36,.65,.24,1.25,.59,1.78,1.07,.53,.48,.95,1.13,1.25,1.96,.3,.83,.45,1.78,.45,2.85v43.9c0,1.54-.27,2.88-.8,4.01-.53,1.13-1.66,2.12-3.38,2.98-1.72,.86-3.95,1.8-6.68,2.81-2.73,1.01-5.55,1.87-8.46,2.58-2.91,.71-5.85,1.25-8.82,1.6-2.97,.36-5.91,.53-8.82,.53-8.9,0-16.86-1.38-23.86-4.14-7.01-2.76-12.93-6.69-17.76-11.8-4.84-5.11-8.53-11.22-11.09-18.34-2.55-7.12-3.83-15.08-3.83-23.86s1.38-17.42,4.14-24.84c2.76-7.42,6.65-13.74,11.67-18.97,5.02-5.22,11.04-9.27,18.08-12.15,7.03-2.88,14.83-4.32,23.37-4.32,4.39,0,8.52,.39,12.38,1.16,3.86,.77,7.29,1.68,10.28,2.72,3,1.04,5.52,2.17,7.57,3.38,2.05,1.22,3.46,2.21,4.23,2.98,.77,.77,1.31,1.66,1.6,2.67,.3,1.01,.44,2.46,.44,4.36Z"/><path class="cls-1" d="M725.04,88.76c0,1.31-.03,2.4-.09,3.29-.06,.89-.18,1.59-.36,2.09-.18,.5-.4,.89-.67,1.16-.27,.27-.64,.4-1.11,.4s-1.05-.13-1.74-.4c-.68-.27-1.46-.53-2.32-.8-.86-.27-1.83-.52-2.89-.76-1.07-.24-2.23-.36-3.47-.36-1.48,0-2.94,.3-4.36,.89-1.42,.59-2.92,1.57-4.5,2.94-1.57,1.37-3.22,3.18-4.94,5.43-1.72,2.26-3.62,5.02-5.7,8.28v52.71c0,.48-.12,.88-.36,1.2-.24,.33-.62,.61-1.16,.85-.53,.24-1.28,.41-2.23,.53-.95,.12-2.17,.18-3.65,.18s-2.61-.06-3.56-.18c-.95-.12-1.71-.3-2.27-.53-.56-.24-.95-.52-1.16-.85-.21-.33-.31-.73-.31-1.2V83.51c0-.47,.09-.88,.27-1.2,.18-.33,.53-.62,1.07-.89,.53-.27,1.22-.45,2.05-.53,.83-.09,1.93-.13,3.29-.13s2.39,.04,3.25,.13c.86,.09,1.53,.27,2,.53,.47,.27,.82,.56,1.02,.89,.21,.33,.31,.73,.31,1.2v11.67c2.2-3.21,4.26-5.82,6.19-7.84,1.93-2.02,3.75-3.61,5.48-4.76,1.72-1.16,3.43-1.96,5.12-2.4,1.69-.45,3.4-.67,5.12-.67,.77,0,1.65,.04,2.63,.13s2,.25,3.07,.49c1.07,.24,2.03,.5,2.89,.8,.86,.3,1.47,.59,1.83,.89,.36,.3,.59,.58,.71,.85,.12,.27,.22,.61,.31,1.02,.09,.42,.15,1.02,.18,1.83,.03,.8,.04,1.89,.04,3.25Z"/><path class="cls-1" d="M792.57,163.74c0,.71-.24,1.25-.71,1.6-.48,.36-1.13,.62-1.96,.8-.83,.18-2.05,.27-3.65,.27s-2.78-.09-3.7-.27c-.92-.18-1.59-.45-2-.8-.42-.36-.62-.89-.62-1.6v-8.01c-3.5,3.74-7.41,6.65-11.71,8.73-4.3,2.08-8.86,3.12-13.67,3.12-4.22,0-8.03-.55-11.44-1.65-3.41-1.1-6.32-2.69-8.73-4.76-2.4-2.08-4.27-4.63-5.61-7.66-1.34-3.03-2-6.47-2-10.33,0-4.51,.92-8.43,2.76-11.75,1.84-3.32,4.48-6.08,7.92-8.28,3.44-2.2,7.66-3.84,12.64-4.94,4.99-1.1,10.6-1.65,16.83-1.65h11.04v-6.23c0-3.09-.33-5.82-.98-8.19-.65-2.37-1.71-4.35-3.16-5.92-1.46-1.57-3.34-2.76-5.65-3.56-2.32-.8-5.16-1.2-8.55-1.2-3.62,0-6.87,.43-9.75,1.29-2.88,.86-5.4,1.81-7.57,2.85-2.17,1.04-3.98,1.99-5.43,2.85-1.46,.86-2.54,1.29-3.25,1.29-.48,0-.89-.12-1.25-.36-.36-.24-.67-.59-.93-1.07-.27-.47-.46-1.08-.58-1.83-.12-.74-.18-1.56-.18-2.45,0-1.48,.1-2.66,.31-3.52,.21-.86,.71-1.68,1.51-2.45,.8-.77,2.18-1.68,4.14-2.72,1.96-1.04,4.21-1.99,6.77-2.85,2.55-.86,5.34-1.57,8.37-2.14,3.03-.56,6.08-.85,9.17-.85,5.76,0,10.65,.65,14.69,1.96,4.04,1.31,7.3,3.22,9.79,5.74,2.49,2.52,4.3,5.65,5.43,9.39,1.13,3.74,1.69,8.1,1.69,13.09v54.05Zm-14.6-36.6h-12.56c-4.04,0-7.54,.34-10.51,1.02-2.97,.68-5.43,1.69-7.39,3.03-1.96,1.33-3.4,2.94-4.32,4.81-.92,1.87-1.38,4.02-1.38,6.46,0,4.16,1.32,7.47,3.96,9.93,2.64,2.46,6.34,3.7,11.09,3.7,3.86,0,7.44-.98,10.73-2.94,3.29-1.96,6.75-4.96,10.37-8.99v-17.01Z"/><path class="cls-1" d="M864.03,141.83c0,4.1-.76,7.75-2.27,10.95-1.51,3.21-3.67,5.91-6.46,8.1-2.79,2.2-6.12,3.86-9.97,4.99-3.86,1.13-8.1,1.69-12.73,1.69-2.85,0-5.57-.22-8.15-.67-2.58-.45-4.9-1.01-6.95-1.69-2.05-.68-3.78-1.39-5.21-2.14-1.42-.74-2.46-1.41-3.12-2-.65-.59-1.13-1.42-1.42-2.49-.3-1.07-.45-2.52-.45-4.36,0-1.13,.06-2.08,.18-2.85,.12-.77,.27-1.39,.45-1.87,.18-.47,.43-.82,.76-1.02,.33-.21,.7-.31,1.11-.31,.65,0,1.62,.4,2.89,1.2,1.28,.8,2.85,1.68,4.72,2.63,1.87,.95,4.08,1.83,6.63,2.63,2.55,.8,5.49,1.2,8.82,1.2,2.49,0,4.75-.27,6.77-.8,2.02-.53,3.77-1.32,5.25-2.36,1.48-1.04,2.63-2.36,3.43-3.96s1.2-3.5,1.2-5.7-.58-4.15-1.74-5.7c-1.16-1.54-2.69-2.91-4.59-4.1-1.9-1.19-4.04-2.24-6.41-3.16-2.38-.92-4.82-1.88-7.35-2.89-2.52-1.01-4.99-2.15-7.39-3.43-2.4-1.28-4.56-2.83-6.46-4.67-1.9-1.84-3.43-4.04-4.59-6.59-1.16-2.55-1.74-5.61-1.74-9.17,0-3.15,.61-6.16,1.83-9.04,1.22-2.88,3.04-5.4,5.48-7.57,2.43-2.17,5.48-3.9,9.13-5.21,3.65-1.3,7.91-1.96,12.78-1.96,2.14,0,4.27,.18,6.41,.54,2.14,.36,4.07,.8,5.79,1.33,1.72,.53,3.19,1.11,4.41,1.74,1.22,.62,2.14,1.17,2.76,1.65,.62,.48,1.04,.89,1.25,1.25,.21,.36,.36,.76,.45,1.2s.18,.99,.27,1.65,.13,1.46,.13,2.4c0,1.01-.04,1.89-.13,2.63-.09,.74-.24,1.35-.45,1.83-.21,.48-.46,.82-.76,1.02-.3,.21-.62,.31-.98,.31-.53,0-1.31-.33-2.31-.98-1.01-.65-2.32-1.35-3.92-2.09-1.6-.74-3.49-1.44-5.65-2.09-2.17-.65-4.65-.98-7.44-.98-2.49,0-4.69,.28-6.59,.85-1.9,.56-3.46,1.37-4.67,2.4-1.22,1.04-2.14,2.27-2.76,3.7-.62,1.42-.94,2.97-.94,4.63,0,2.32,.59,4.26,1.78,5.83,1.19,1.57,2.73,2.95,4.63,4.14,1.9,1.19,4.07,2.26,6.5,3.21,2.43,.95,4.91,1.93,7.44,2.94,2.52,1.01,5.02,2.14,7.48,3.38,2.46,1.25,4.64,2.76,6.54,4.54,1.9,1.78,3.43,3.92,4.59,6.41,1.16,2.49,1.74,5.46,1.74,8.9Z"/><path class="cls-1" d="M929.52,141.83c0,4.1-.76,7.75-2.27,10.95-1.51,3.21-3.67,5.91-6.46,8.1-2.79,2.2-6.12,3.86-9.97,4.99-3.86,1.13-8.1,1.69-12.73,1.69-2.85,0-5.57-.22-8.15-.67-2.58-.45-4.9-1.01-6.95-1.69-2.05-.68-3.78-1.39-5.21-2.14-1.42-.74-2.46-1.41-3.12-2-.65-.59-1.13-1.42-1.42-2.49-.3-1.07-.45-2.52-.45-4.36,0-1.13,.06-2.08,.18-2.85,.12-.77,.27-1.39,.45-1.87,.18-.47,.43-.82,.76-1.02,.33-.21,.7-.31,1.11-.31,.65,0,1.62,.4,2.89,1.2,1.28,.8,2.85,1.68,4.72,2.63,1.87,.95,4.08,1.83,6.63,2.63,2.55,.8,5.49,1.2,8.82,1.2,2.49,0,4.75-.27,6.77-.8,2.02-.53,3.77-1.32,5.25-2.36,1.48-1.04,2.63-2.36,3.43-3.96s1.2-3.5,1.2-5.7-.58-4.15-1.74-5.7c-1.16-1.54-2.69-2.91-4.59-4.1-1.9-1.19-4.04-2.24-6.41-3.16-2.38-.92-4.82-1.88-7.35-2.89-2.52-1.01-4.99-2.15-7.39-3.43-2.4-1.28-4.56-2.83-6.46-4.67-1.9-1.84-3.43-4.04-4.59-6.59-1.16-2.55-1.74-5.61-1.74-9.17,0-3.15,.61-6.16,1.83-9.04,1.22-2.88,3.04-5.4,5.48-7.57,2.43-2.17,5.48-3.9,9.13-5.21,3.65-1.3,7.91-1.96,12.78-1.96,2.14,0,4.27,.18,6.41,.54,2.14,.36,4.07,.8,5.79,1.33,1.72,.53,3.19,1.11,4.41,1.74,1.22,.62,2.14,1.17,2.76,1.65,.62,.48,1.04,.89,1.25,1.25,.21,.36,.36,.76,.45,1.2s.18,.99,.27,1.65,.13,1.46,.13,2.4c0,1.01-.04,1.89-.13,2.63-.09,.74-.24,1.35-.45,1.83-.21,.48-.46,.82-.76,1.02-.3,.21-.62,.31-.98,.31-.53,0-1.31-.33-2.31-.98-1.01-.65-2.32-1.35-3.92-2.09-1.6-.74-3.49-1.44-5.65-2.09-2.17-.65-4.65-.98-7.44-.98-2.49,0-4.69,.28-6.59,.85-1.9,.56-3.46,1.37-4.67,2.4-1.22,1.04-2.14,2.27-2.76,3.7-.62,1.42-.94,2.97-.94,4.63,0,2.32,.59,4.26,1.78,5.83,1.19,1.57,2.73,2.95,4.63,4.14,1.9,1.19,4.07,2.26,6.5,3.21,2.43,.95,4.91,1.93,7.44,2.94,2.52,1.01,5.02,2.14,7.48,3.38,2.46,1.25,4.64,2.76,6.54,4.54,1.9,1.78,3.43,3.92,4.59,6.41,1.16,2.49,1.74,5.46,1.74,8.9Z"/><path class="cls-1" d="M991.53,88.76c0,1.31-.03,2.4-.09,3.29-.06,.89-.18,1.59-.36,2.09-.18,.5-.4,.89-.67,1.16-.27,.27-.64,.4-1.11,.4s-1.05-.13-1.74-.4c-.68-.27-1.46-.53-2.32-.8-.86-.27-1.83-.52-2.89-.76-1.07-.24-2.23-.36-3.47-.36-1.48,0-2.94,.3-4.36,.89-1.42,.59-2.92,1.57-4.5,2.94-1.57,1.37-3.22,3.18-4.94,5.43-1.72,2.26-3.62,5.02-5.7,8.28v52.71c0,.48-.12,.88-.36,1.2-.24,.33-.62,.61-1.16,.85-.53,.24-1.28,.41-2.23,.53-.95,.12-2.17,.18-3.65,.18s-2.61-.06-3.56-.18c-.95-.12-1.71-.3-2.27-.53-.56-.24-.95-.52-1.16-.85-.21-.33-.31-.73-.31-1.2V83.51c0-.47,.09-.88,.27-1.2,.18-.33,.53-.62,1.07-.89,.53-.27,1.22-.45,2.05-.53,.83-.09,1.93-.13,3.29-.13s2.39,.04,3.25,.13c.86,.09,1.53,.27,2,.53,.47,.27,.82,.56,1.02,.89,.21,.33,.31,.73,.31,1.2v11.67c2.2-3.21,4.26-5.82,6.19-7.84,1.93-2.02,3.75-3.61,5.48-4.76,1.72-1.16,3.43-1.96,5.12-2.4,1.69-.45,3.4-.67,5.12-.67,.77,0,1.65,.04,2.63,.13s2,.25,3.07,.49c1.07,.24,2.03,.5,2.89,.8,.86,.3,1.47,.59,1.83,.89,.36,.3,.59,.58,.71,.85,.12,.27,.22,.61,.31,1.02,.09,.42,.15,1.02,.18,1.83,.03,.8,.04,1.89,.04,3.25Z"/><path class="cls-1" d="M1074.03,122.69c0,6.53-.86,12.54-2.58,18.03-1.72,5.49-4.29,10.23-7.7,14.2-3.41,3.98-7.69,7.08-12.82,9.3-5.14,2.23-11.09,3.34-17.85,3.34s-12.33-.98-17.23-2.94c-4.9-1.96-8.98-4.81-12.24-8.55-3.27-3.74-5.7-8.28-7.3-13.62-1.6-5.34-2.4-11.4-2.4-18.17s.85-12.54,2.54-18.03c1.69-5.49,4.24-10.23,7.66-14.2,3.41-3.98,7.67-7.06,12.78-9.26,5.1-2.2,11.07-3.29,17.9-3.29s12.33,.98,17.23,2.94,8.98,4.81,12.24,8.55c3.26,3.74,5.71,8.28,7.35,13.62,1.63,5.34,2.45,11.37,2.45,18.08Zm-15.23,.98c0-4.33-.4-8.43-1.21-12.29-.81-3.86-2.14-7.24-4-10.15-1.86-2.91-4.37-5.21-7.55-6.9-3.17-1.69-7.13-2.54-11.86-2.54-4.37,0-8.13,.77-11.28,2.31-3.14,1.54-5.74,3.73-7.77,6.54-2.04,2.82-3.55,6.16-4.54,10.02-.99,3.86-1.48,8.07-1.48,12.64s.4,8.52,1.21,12.38c.81,3.86,2.16,7.23,4.04,10.11,1.89,2.88,4.42,5.17,7.59,6.86,3.17,1.69,7.13,2.54,11.86,2.54,4.31,0,8.06-.77,11.23-2.32,3.17-1.54,5.78-3.71,7.82-6.5,2.04-2.79,3.53-6.11,4.49-9.97,.96-3.86,1.44-8.1,1.44-12.73Z"/><path class="cls-1" d="M1164.36,122.69c0,6.53-.86,12.54-2.58,18.03-1.72,5.49-4.29,10.23-7.7,14.2-3.41,3.98-7.69,7.08-12.82,9.3-5.14,2.23-11.09,3.34-17.85,3.34s-12.33-.98-17.23-2.94c-4.9-1.96-8.98-4.81-12.24-8.55-3.27-3.74-5.7-8.28-7.3-13.62-1.6-5.34-2.4-11.4-2.4-18.17s.85-12.54,2.54-18.03c1.69-5.49,4.24-10.23,7.66-14.2,3.41-3.98,7.67-7.06,12.78-9.26,5.1-2.2,11.07-3.29,17.9-3.29s12.33,.98,17.23,2.94,8.98,4.81,12.24,8.55c3.26,3.74,5.71,8.28,7.35,13.62,1.63,5.34,2.45,11.37,2.45,18.08Zm-15.23,.98c0-4.33-.4-8.43-1.21-12.29-.81-3.86-2.14-7.24-4-10.15-1.86-2.91-4.37-5.21-7.55-6.9-3.17-1.69-7.13-2.54-11.86-2.54-4.37,0-8.13,.77-11.28,2.31-3.14,1.54-5.74,3.73-7.77,6.54-2.04,2.82-3.55,6.16-4.54,10.02-.99,3.86-1.48,8.07-1.48,12.64s.4,8.52,1.21,12.38c.81,3.86,2.16,7.23,4.04,10.11,1.89,2.88,4.42,5.17,7.59,6.86,3.17,1.69,7.13,2.54,11.86,2.54,4.31,0,8.06-.77,11.23-2.32,3.17-1.54,5.78-3.71,7.82-6.5,2.04-2.79,3.53-6.11,4.49-9.97,.96-3.86,1.44-8.1,1.44-12.73Z"/><path class="cls-1" d="M1221.84,157.77c0,1.72-.12,3.09-.36,4.1-.24,1.01-.59,1.75-1.07,2.23-.48,.48-1.19,.92-2.14,1.34-.95,.42-2.03,.76-3.25,1.02-1.22,.27-2.51,.49-3.87,.67-1.37,.18-2.73,.27-4.1,.27-4.16,0-7.72-.55-10.69-1.65-2.97-1.1-5.4-2.76-7.3-4.99-1.9-2.23-3.28-5.04-4.14-8.46-.86-3.41-1.29-7.44-1.29-12.07v-46.84h-11.22c-.89,0-1.6-.47-2.14-1.42-.53-.95-.8-2.49-.8-4.63,0-1.13,.07-2.08,.22-2.85,.15-.77,.34-1.41,.58-1.92,.24-.5,.55-.86,.94-1.07,.39-.21,.82-.31,1.29-.31h11.13v-19.06c0-.42,.1-.8,.31-1.16,.21-.36,.59-.67,1.16-.94,.56-.27,1.32-.46,2.27-.58,.95-.12,2.14-.18,3.56-.18s2.7,.06,3.65,.18c.95,.12,1.69,.31,2.23,.58,.53,.27,.92,.58,1.16,.94,.24,.36,.36,.74,.36,1.16v19.06h20.57c.47,0,.89,.1,1.25,.31,.36,.21,.67,.57,.94,1.07,.27,.5,.46,1.14,.58,1.92,.12,.77,.18,1.72,.18,2.85,0,2.14-.27,3.68-.8,4.63-.53,.95-1.25,1.42-2.14,1.42h-20.57v44.7c0,5.52,.82,9.69,2.45,12.51,1.63,2.82,4.56,4.23,8.77,4.23,1.36,0,2.58-.13,3.65-.4,1.07-.27,2.02-.55,2.85-.85,.83-.3,1.54-.58,2.14-.85,.59-.27,1.13-.4,1.6-.4,.3,0,.58,.08,.85,.22,.27,.15,.47,.43,.62,.85,.15,.42,.28,.98,.4,1.69,.12,.71,.18,1.6,.18,2.67Z"/><path class="cls-1" d="M1285.73,141.83c0,4.1-.76,7.75-2.27,10.95-1.51,3.21-3.67,5.91-6.46,8.1-2.79,2.2-6.12,3.86-9.97,4.99-3.86,1.13-8.1,1.69-12.73,1.69-2.85,0-5.57-.22-8.15-.67-2.58-.45-4.9-1.01-6.95-1.69-2.05-.68-3.78-1.39-5.21-2.14-1.42-.74-2.46-1.41-3.12-2-.65-.59-1.13-1.42-1.42-2.49-.3-1.07-.45-2.52-.45-4.36,0-1.13,.06-2.08,.18-2.85,.12-.77,.27-1.39,.45-1.87,.18-.47,.43-.82,.76-1.02,.33-.21,.7-.31,1.11-.31,.65,0,1.62,.4,2.89,1.2,1.28,.8,2.85,1.68,4.72,2.63,1.87,.95,4.08,1.83,6.63,2.63,2.55,.8,5.49,1.2,8.82,1.2,2.49,0,4.75-.27,6.77-.8,2.02-.53,3.77-1.32,5.25-2.36,1.48-1.04,2.63-2.36,3.43-3.96s1.2-3.5,1.2-5.7-.58-4.15-1.74-5.7c-1.16-1.54-2.69-2.91-4.59-4.1-1.9-1.19-4.04-2.24-6.41-3.16-2.38-.92-4.82-1.88-7.35-2.89-2.52-1.01-4.99-2.15-7.39-3.43-2.4-1.28-4.56-2.83-6.46-4.67-1.9-1.84-3.43-4.04-4.59-6.59-1.16-2.55-1.74-5.61-1.74-9.17,0-3.15,.61-6.16,1.83-9.04,1.22-2.88,3.04-5.4,5.48-7.57,2.43-2.17,5.48-3.9,9.13-5.21,3.65-1.3,7.91-1.96,12.78-1.96,2.14,0,4.27,.18,6.41,.54,2.14,.36,4.07,.8,5.79,1.33,1.72,.53,3.19,1.11,4.41,1.74,1.22,.62,2.14,1.17,2.76,1.65,.62,.48,1.04,.89,1.25,1.25,.21,.36,.36,.76,.45,1.2s.18,.99,.27,1.65,.13,1.46,.13,2.4c0,1.01-.04,1.89-.13,2.63-.09,.74-.24,1.35-.45,1.83-.21,.48-.46,.82-.76,1.02-.3,.21-.62,.31-.98,.31-.53,0-1.31-.33-2.31-.98-1.01-.65-2.32-1.35-3.92-2.09-1.6-.74-3.49-1.44-5.65-2.09-2.17-.65-4.65-.98-7.44-.98-2.49,0-4.69,.28-6.59,.85-1.9,.56-3.46,1.37-4.67,2.4-1.22,1.04-2.14,2.27-2.76,3.7-.62,1.42-.94,2.97-.94,4.63,0,2.32,.59,4.26,1.78,5.83,1.19,1.57,2.73,2.95,4.63,4.14,1.9,1.19,4.07,2.26,6.5,3.21,2.43,.95,4.91,1.93,7.44,2.94,2.52,1.01,5.02,2.14,7.48,3.38,2.46,1.25,4.64,2.76,6.54,4.54,1.9,1.78,3.43,3.92,4.59,6.41,1.16,2.49,1.74,5.46,1.74,8.9Z"/><path class="cls-1" d="M647.53,318.1c0,.48-.09,.89-.27,1.25-.18,.36-.56,.65-1.16,.89-.59,.24-1.42,.41-2.49,.53-1.07,.12-2.49,.18-4.27,.18-1.54,0-2.8-.06-3.78-.18-.98-.12-1.77-.31-2.36-.58-.59-.27-1.05-.64-1.38-1.11-.33-.47-.61-1.07-.85-1.78l-10.6-27.16c-1.25-3.09-2.54-5.92-3.87-8.5-1.34-2.58-2.92-4.81-4.76-6.68-1.84-1.87-4.01-3.32-6.5-4.36-2.49-1.04-5.49-1.56-8.99-1.56h-10.24v49.06c0,.48-.13,.89-.4,1.25-.27,.36-.68,.64-1.25,.85-.56,.21-1.34,.39-2.31,.53-.98,.15-2.21,.22-3.7,.22s-2.72-.08-3.7-.22c-.98-.15-1.77-.33-2.36-.53-.59-.21-1.01-.49-1.25-.85-.24-.36-.36-.77-.36-1.25v-106.68c0-2.31,.61-3.93,1.83-4.85,1.22-.92,2.51-1.38,3.87-1.38h24.49c2.91,0,5.33,.08,7.26,.22,1.93,.15,3.66,.31,5.21,.49,4.45,.77,8.38,1.99,11.8,3.65,3.41,1.66,6.28,3.77,8.59,6.32,2.32,2.55,4.05,5.48,5.21,8.77,1.16,3.29,1.74,6.93,1.74,10.91s-.52,7.32-1.56,10.37c-1.04,3.06-2.54,5.76-4.5,8.1-1.96,2.35-4.3,4.38-7.03,6.1-2.73,1.72-5.79,3.18-9.17,4.36,1.9,.83,3.62,1.88,5.16,3.16,1.54,1.28,2.98,2.8,4.32,4.59,1.34,1.78,2.6,3.83,3.78,6.14,1.19,2.32,2.37,4.93,3.56,7.84l10.33,25.38c.83,2.14,1.36,3.64,1.6,4.5,.24,.86,.36,1.53,.36,2Zm-23.06-80.94c0-4.51-1.01-8.33-3.03-11.44-2.02-3.12-5.4-5.36-10.15-6.72-1.48-.42-3.16-.71-5.03-.89s-4.32-.27-7.35-.27h-12.91v38.82h14.96c4.04,0,7.52-.49,10.46-1.47s5.39-2.34,7.35-4.1c1.96-1.75,3.4-3.81,4.32-6.19,.92-2.37,1.38-4.96,1.38-7.75Z"/><path class="cls-1" d="M722.54,318.28c0,.71-.24,1.25-.71,1.6-.48,.36-1.13,.62-1.96,.8-.83,.18-2.05,.27-3.65,.27s-2.78-.09-3.7-.27c-.92-.18-1.59-.45-2-.8-.42-.36-.62-.89-.62-1.6v-8.01c-3.5,3.74-7.41,6.65-11.71,8.73-4.3,2.08-8.86,3.12-13.67,3.12-4.22,0-8.03-.55-11.44-1.65-3.41-1.1-6.32-2.69-8.73-4.76-2.4-2.08-4.27-4.63-5.61-7.66-1.34-3.03-2-6.47-2-10.33,0-4.51,.92-8.43,2.76-11.75,1.84-3.32,4.48-6.08,7.92-8.28,3.44-2.2,7.66-3.84,12.64-4.94,4.99-1.1,10.6-1.65,16.83-1.65h11.04v-6.23c0-3.09-.33-5.82-.98-8.19-.65-2.37-1.71-4.35-3.16-5.92-1.46-1.57-3.34-2.76-5.65-3.56-2.32-.8-5.16-1.2-8.55-1.2-3.62,0-6.87,.43-9.75,1.29-2.88,.86-5.4,1.81-7.57,2.85-2.17,1.04-3.98,1.99-5.43,2.85-1.46,.86-2.54,1.29-3.25,1.29-.48,0-.89-.12-1.25-.36-.36-.24-.67-.59-.93-1.07-.27-.47-.46-1.08-.58-1.83-.12-.74-.18-1.56-.18-2.45,0-1.48,.1-2.66,.31-3.52,.21-.86,.71-1.68,1.51-2.45,.8-.77,2.18-1.68,4.14-2.72,1.96-1.04,4.21-1.99,6.77-2.85,2.55-.86,5.34-1.57,8.37-2.14,3.03-.56,6.08-.85,9.17-.85,5.76,0,10.65,.65,14.69,1.96,4.04,1.31,7.3,3.22,9.79,5.74,2.49,2.52,4.3,5.65,5.43,9.39,1.13,3.74,1.69,8.1,1.69,13.09v54.05Zm-14.6-36.6h-12.56c-4.04,0-7.54,.34-10.51,1.02-2.97,.68-5.43,1.69-7.39,3.03-1.96,1.33-3.4,2.94-4.32,4.81-.92,1.87-1.38,4.02-1.38,6.46,0,4.16,1.32,7.47,3.96,9.93,2.64,2.46,6.34,3.7,11.09,3.7,3.86,0,7.44-.98,10.73-2.94,3.29-1.96,6.75-4.96,10.37-8.99v-17.01Z"/><path class="cls-1" d="M812.34,318.19c0,.48-.1,.89-.31,1.25-.21,.36-.56,.64-1.07,.85-.51,.21-1.17,.37-2,.49-.83,.12-1.84,.18-3.03,.18-1.25,0-2.29-.06-3.12-.18-.83-.12-1.51-.28-2.05-.49-.53-.21-.92-.49-1.16-.85-.24-.36-.36-.77-.36-1.25v-10.6c-4.22,4.57-8.59,8.13-13.13,10.69-4.54,2.55-9.51,3.83-14.92,3.83-5.88,0-10.89-1.14-15.05-3.43-4.16-2.28-7.52-5.37-10.11-9.26-2.58-3.89-4.47-8.46-5.65-13.71-1.19-5.25-1.78-10.79-1.78-16.61,0-6.89,.74-13.1,2.23-18.66,1.48-5.55,3.68-10.29,6.59-14.2,2.91-3.92,6.51-6.93,10.82-9.04,4.3-2.11,9.27-3.16,14.92-3.16,4.69,0,8.98,1.02,12.87,3.07,3.89,2.05,7.73,5.06,11.53,9.04v-46.57c0-.42,.1-.82,.31-1.2,.21-.39,.61-.68,1.2-.89,.59-.21,1.35-.38,2.27-.53,.92-.15,2.09-.22,3.52-.22s2.7,.08,3.65,.22c.95,.15,1.69,.33,2.23,.53,.53,.21,.94,.5,1.2,.89,.27,.39,.4,.79,.4,1.2v118.61Zm-14.78-56.37c-3.98-4.93-7.82-8.68-11.53-11.26-3.71-2.58-7.58-3.87-11.62-3.87-3.74,0-6.92,.89-9.53,2.67-2.61,1.78-4.73,4.13-6.37,7.03-1.63,2.91-2.82,6.2-3.56,9.88-.74,3.68-1.11,7.42-1.11,11.22,0,4.04,.31,7.99,.94,11.84,.62,3.86,1.71,7.29,3.25,10.29,1.54,3,3.59,5.4,6.14,7.21,2.55,1.81,5.76,2.72,9.62,2.72,1.96,0,3.84-.27,5.65-.8,1.81-.53,3.66-1.42,5.57-2.67,1.9-1.25,3.89-2.86,5.97-4.85,2.08-1.99,4.27-4.44,6.59-7.35v-32.06Z"/><path class="cls-1" d="M850.05,210.98c0,3.44-.65,5.79-1.96,7.04-1.31,1.25-3.71,1.87-7.21,1.87s-5.8-.61-7.08-1.83c-1.28-1.22-1.91-3.52-1.91-6.9s.65-5.79,1.96-7.04c1.31-1.25,3.71-1.87,7.21-1.87s5.8,.61,7.08,1.83c1.28,1.22,1.91,3.52,1.91,6.9Zm-1.69,107.21c0,.48-.12,.88-.36,1.2-.24,.33-.62,.61-1.16,.85-.53,.24-1.28,.41-2.23,.53-.95,.12-2.17,.18-3.65,.18s-2.61-.06-3.56-.18c-.95-.12-1.71-.3-2.27-.53-.56-.24-.95-.52-1.16-.85-.21-.33-.31-.73-.31-1.2v-80.14c0-.42,.1-.8,.31-1.16,.21-.36,.59-.65,1.16-.89,.56-.24,1.32-.41,2.27-.53,.95-.12,2.14-.18,3.56-.18s2.7,.06,3.65,.18c.95,.12,1.69,.3,2.23,.53,.53,.24,.92,.54,1.16,.89,.24,.36,.36,.74,.36,1.16v80.14Z"/><path class="cls-1" d="M944.21,277.23c0,6.53-.86,12.54-2.58,18.03-1.72,5.49-4.29,10.23-7.7,14.2-3.41,3.98-7.69,7.08-12.82,9.3-5.14,2.23-11.09,3.34-17.85,3.34s-12.33-.98-17.23-2.94c-4.9-1.96-8.98-4.81-12.24-8.55-3.27-3.74-5.7-8.28-7.3-13.62-1.6-5.34-2.4-11.4-2.4-18.17s.85-12.54,2.54-18.03c1.69-5.49,4.24-10.23,7.66-14.2,3.41-3.98,7.67-7.06,12.78-9.26,5.1-2.2,11.07-3.29,17.9-3.29s12.33,.98,17.23,2.94,8.98,4.81,12.24,8.55c3.26,3.74,5.71,8.28,7.35,13.62,1.63,5.34,2.45,11.37,2.45,18.08Zm-15.23,.98c0-4.33-.4-8.43-1.21-12.29-.81-3.86-2.14-7.24-4-10.15-1.86-2.91-4.37-5.21-7.55-6.9-3.17-1.69-7.13-2.54-11.86-2.54-4.37,0-8.13,.77-11.28,2.31-3.14,1.54-5.74,3.73-7.77,6.54-2.04,2.82-3.55,6.16-4.54,10.02-.99,3.86-1.48,8.07-1.48,12.64s.4,8.52,1.21,12.38c.81,3.86,2.16,7.23,4.04,10.11,1.89,2.88,4.42,5.17,7.59,6.86,3.17,1.69,7.13,2.54,11.86,2.54,4.31,0,8.06-.77,11.23-2.32,3.17-1.54,5.78-3.71,7.82-6.5,2.04-2.79,3.53-6.11,4.49-9.97,.96-3.86,1.44-8.1,1.44-12.73Z"/><path class="cls-1" d="M1074.03,304.12c0,.95-.03,1.78-.09,2.49-.06,.71-.16,1.34-.31,1.87-.15,.53-.34,1.01-.58,1.42-.24,.42-.65,.92-1.25,1.51-.59,.59-1.84,1.5-3.74,2.72-1.9,1.22-4.26,2.4-7.08,3.56-2.82,1.16-6.06,2.14-9.71,2.94s-7.64,1.2-11.98,1.2c-7.48,0-14.23-1.25-20.26-3.74-6.03-2.49-11.16-6.17-15.4-11.04-4.24-4.87-7.51-10.88-9.79-18.03-2.29-7.15-3.43-15.39-3.43-24.71s1.23-18.08,3.7-25.56c2.46-7.48,5.92-13.82,10.37-19.01,4.45-5.19,9.78-9.16,15.98-11.89,6.2-2.73,13.07-4.1,20.61-4.1,3.32,0,6.56,.31,9.71,.93,3.15,.62,6.06,1.41,8.73,2.36,2.67,.95,5.04,2.05,7.12,3.29,2.08,1.25,3.52,2.27,4.32,3.07,.8,.8,1.32,1.41,1.56,1.83,.24,.42,.43,.91,.58,1.47,.15,.56,.27,1.23,.36,2,.09,.77,.13,1.69,.13,2.76,0,1.19-.06,2.2-.18,3.03-.12,.83-.3,1.53-.54,2.09-.24,.56-.52,.98-.85,1.25-.33,.27-.73,.4-1.21,.4-.83,0-2-.58-3.49-1.74-1.49-1.16-3.42-2.43-5.78-3.83-2.36-1.39-5.22-2.67-8.59-3.83-3.37-1.16-7.42-1.74-12.13-1.74-5.13,0-9.8,1.02-14.01,3.07-4.21,2.05-7.8,5.06-10.79,9.04-2.98,3.98-5.3,8.83-6.94,14.56-1.64,5.73-2.46,12.27-2.46,19.63s.79,13.76,2.37,19.37c1.58,5.61,3.85,10.3,6.8,14.07,2.95,3.77,6.58,6.62,10.88,8.55,4.3,1.93,9.16,2.89,14.59,2.89,4.59,0,8.61-.56,12.04-1.69,3.43-1.13,6.36-2.39,8.77-3.78,2.42-1.39,4.4-2.66,5.95-3.79,1.55-1.13,2.77-1.69,3.67-1.69,.42,0,.78,.09,1.07,.27,.3,.18,.54,.52,.72,1.02,.18,.5,.31,1.2,.4,2.09,.09,.89,.13,2.02,.13,3.38Z"/><path class="cls-1" d="M1101.5,318.19c0,.48-.12,.88-.36,1.2-.24,.33-.62,.61-1.16,.85-.53,.24-1.28,.41-2.23,.53-.95,.12-2.17,.18-3.65,.18s-2.61-.06-3.56-.18c-.95-.12-1.71-.3-2.27-.53-.56-.24-.95-.52-1.16-.85-.21-.33-.31-.73-.31-1.2v-118.96c0-.47,.1-.89,.31-1.25,.21-.36,.59-.65,1.16-.89,.56-.24,1.32-.42,2.27-.53,.95-.12,2.14-.18,3.56-.18s2.7,.06,3.65,.18c.95,.12,1.69,.3,2.23,.53,.53,.24,.92,.53,1.16,.89,.24,.36,.36,.77,.36,1.25v118.96Z"/><path class="cls-1" d="M1191.48,318.19c0,.48-.1,.88-.31,1.2-.21,.33-.58,.61-1.11,.85-.53,.24-1.23,.41-2.09,.53-.86,.12-1.91,.18-3.16,.18-1.37,0-2.48-.06-3.34-.18-.86-.12-1.54-.3-2.05-.53-.5-.24-.85-.52-1.02-.85-.18-.33-.27-.73-.27-1.2v-10.6c-4.57,5.05-9.08,8.73-13.54,11.04-4.45,2.32-8.96,3.47-13.53,3.47-5.34,0-9.84-.89-13.49-2.67s-6.6-4.2-8.86-7.26c-2.26-3.06-3.87-6.62-4.85-10.69-.98-4.07-1.47-9.01-1.47-14.83v-48.62c0-.47,.1-.88,.31-1.2,.21-.33,.61-.62,1.2-.89,.59-.27,1.36-.45,2.32-.53,.95-.09,2.14-.13,3.56-.13s2.61,.04,3.56,.13c.95,.09,1.71,.27,2.27,.53,.56,.27,.96,.56,1.2,.89,.24,.33,.36,.73,.36,1.2v46.66c0,4.69,.34,8.45,1.02,11.26,.68,2.82,1.72,5.22,3.12,7.21,1.39,1.99,3.16,3.53,5.3,4.63,2.14,1.1,4.63,1.65,7.48,1.65,3.68,0,7.35-1.31,11-3.92s7.52-6.44,11.62-11.49v-56.01c0-.47,.1-.88,.31-1.2,.21-.33,.61-.62,1.2-.89,.59-.27,1.35-.45,2.27-.53,.92-.09,2.12-.13,3.61-.13s2.61,.04,3.56,.13c.95,.09,1.69,.27,2.23,.53,.53,.27,.94,.56,1.2,.89,.27,.33,.4,.73,.4,1.2v80.14Z"/><path class="cls-1" d="M1286.53,277.05c0,6.95-.76,13.19-2.27,18.74-1.51,5.55-3.74,10.29-6.68,14.2-2.94,3.92-6.54,6.92-10.82,8.99-4.27,2.08-9.17,3.12-14.69,3.12-2.55,0-4.91-.25-7.08-.76-2.17-.5-4.29-1.32-6.37-2.45-2.08-1.13-4.16-2.55-6.23-4.27-2.08-1.72-4.27-3.8-6.59-6.23v9.79c0,.48-.12,.89-.36,1.25-.24,.36-.62,.64-1.16,.85-.53,.21-1.2,.37-2,.49-.8,.12-1.83,.18-3.07,.18s-2.2-.06-3.03-.18c-.83-.12-1.51-.28-2.05-.49-.53-.21-.89-.49-1.07-.85s-.27-.77-.27-1.25v-118.96c0-.47,.1-.89,.31-1.25,.21-.36,.59-.65,1.16-.89,.56-.24,1.32-.42,2.27-.53,.95-.12,2.14-.18,3.56-.18s2.7,.06,3.65,.18c.95,.12,1.69,.3,2.23,.53,.53,.24,.92,.53,1.16,.89,.24,.36,.36,.77,.36,1.25v48c2.37-2.43,4.67-4.48,6.9-6.14,2.23-1.66,4.41-3.01,6.54-4.05,2.14-1.04,4.27-1.79,6.41-2.27,2.14-.47,4.39-.71,6.77-.71,5.82,0,10.79,1.16,14.92,3.47,4.12,2.31,7.48,5.42,10.06,9.3,2.58,3.89,4.47,8.45,5.65,13.67,1.19,5.22,1.78,10.75,1.78,16.56Zm-15.23,1.69c0-4.1-.31-8.07-.94-11.93-.63-3.86-1.72-7.27-3.27-10.24-1.55-2.97-3.61-5.36-6.18-7.17-2.57-1.81-5.76-2.72-9.59-2.72-1.91,0-3.79,.27-5.64,.8-1.85,.53-3.73,1.42-5.65,2.67-1.91,1.25-3.9,2.85-5.96,4.81s-4.25,4.42-6.58,7.39v31.97c4.06,4.93,7.94,8.68,11.65,11.26,3.7,2.58,7.56,3.87,11.56,3.87,3.7,0,6.87-.89,9.5-2.67,2.63-1.78,4.76-4.14,6.41-7.08s2.84-6.23,3.58-9.88c.75-3.65,1.12-7.35,1.12-11.09Z"/></g></g><g><circle class="cls-1" cx="259.19" cy="258.64" r="244.48"/><path class="cls-8" d="M248.59,264.12c1.08-1.26,2.16-2.51,3.24-3.77,.22,.13,.45,.25,.67,.38v-18.36c.24-6.08,.63-12.15,.67-18.23,.1-15.2,.03-30.41,.03-45.61l.28-.25c.21,1.23,.6,2.46,.6,3.69,.04,14.37,.16,28.75-.02,43.12-.15,12-.66,24-1.02,36.2-1.32,.83-2.89,1.83-4.47,2.83Z"/><path class="cls-4" d="M293.76,371.91c2.07,3.5,4.14,6.99,6.21,10.49-3.84-.65-5.39-3.71-7.22-6.46,.48,.09,.97,.19,1.44,.28-.14-1.41-.29-2.85-.43-4.3Z"/><path class="cls-14" d="M320.95,321.96c-1.8-1.05-3.61-2.09-5.41-3.14,2.48-.13,3.95,1.49,5.41,3.14Z"/><path class="cls-4" d="M295.32,369.55c-2.06-.25-1.41,1.33-1.57,2.36-1.46-1.07-.69-2.37-.48-4.32,.95,.91,1.5,1.44,2.05,1.96Z"/><path class="cls-2" d="M273.46,353.29c-1.52-.82-3.04-1.64-4.55-2.46,1.52,.82,3.04,1.64,4.55,2.46Z"/><path class="cls-19" d="M180.39,307.97c-1.84,.48-3.67,.95-5.51,1.43,1.84-.48,3.67-.95,5.51-1.43Z"/><path class="cls-15" d="M513.48,237.64c-.17-1.75-.33-3.51-.5-5.26,.17,1.75,.33,3.51,.5,5.26Z"/><path class="cls-8" d="M516.58,264.02c0-.9-.01-1.8,0-2.7,.25-18-1.52-35.81-5.19-53.41-5.69-27.26-15.75-52.81-30.14-76.64-20.13-33.34-46.6-60.51-79.03-81.82-23.72-15.59-49.37-26.95-76.87-33.94-7.97-2.02-16.08-3.49-24.12-5.21-16.49-2.35-33.04-3.86-49.71-3.28-13.66,.48-27.25,1.75-40.69,4.38-.37,.07-.77,0-1.15,0-2,.35-4.01,.71-6.01,1.06-5.24,1.24-10.49,2.47-15.73,3.71-.68,.3-1.34,.7-2.05,.9l-39.67,14.96c-32.19,15.31-60.2,36.28-83.76,63.17-17.9,20.43-32.15,43.16-42.7,68.24C8.65,189.87,2.55,217.48,1.02,246.09c-.98,18.35,.34,36.6,3.5,54.73,4.11,23.55,11.51,45.99,22.22,67.29,15.84,31.48,37.35,58.49,64.41,81,27.72,23.06,58.88,39.61,93.43,49.71,22.08,6.46,44.64,9.93,67.63,10.47,13.34,.31,26.62-.42,39.88-2.07,20.09-2.5,39.6-7.29,58.57-14.31,30.39-11.25,57.73-27.72,81.95-49.3,26.87-23.94,47.84-52.31,62.6-85.23,10.53-23.47,17.2-48.02,19.87-73.64,.67-6.44,1.1-12.91,1.64-19.37,.58-.17,1.15-.33,1.94-.56-.83-.31-1.41-.53-2.09-.78Zm-2.58,6.63c-1.32,20.01-4.5,39.67-10.45,58.87-7.77,25.09-19.2,48.33-34.34,69.73-18.12,25.6-40.31,47-66.32,64.37-22.96,15.33-47.77,26.64-74.37,33.98-26.65,7.35-53.8,10.43-81.38,9.17-45.28-2.07-87.36-14.86-125.95-38.86-33.09-20.58-60.12-47.37-80.9-80.44-15.58-24.79-26.3-51.62-32.25-80.33-2.74-13.24-4.27-26.66-4.78-40.18-.02-.49,0-.97,0-1.64H246.88c-1.01,3.72-5.34,7.12-9.6,7.46-4.35,.35-8.78,.21-13.04,1.02-4.89,.93-9.82,.16-14.61,.89-7.93,1.21-15.94,1.7-23.75,4.11-9.13,2.82-18.6,4.53-27.9,6.84-3.34,.83-6.54,2.42-9.92,2.94-3.76,.58-7.7,.79-11.46,.34-3.77-.45-7.41-1.91-11.11-2.92-4.01-1.09-7.86-.06-11.71,.92-.13,.03-.16,.45-.41,1.24,1.3,.08,2.49,.3,3.67,.22,5.4-.37,10.35,.8,15.33,3.07,5.02,2.29,10.49,3.56,16.13,1.77,.58-.18,1.22-.13,2.8-.27-5.45,3.8-9.96,7.36-14.87,10.21-2.57,1.49-5.85,1.72-8.8,2.57-.85,.24-1.65,.65-2.35,1.26,5.36,1.59,10.13-.12,14.36-2.26,2.31,1.56-.11,4.6,2.56,5.52,.28-.33,.58-.52,.56-.69-.6-6.41,3.85-9.52,8.51-11.65,6.75-3.09,13.83-5.54,20.93-7.76,4.35-1.36,9-1.76,13.5-2.63,4.13-.8,8.25-1.68,12.38-2.47,1.49-.28,3.02-.4,5.09-.66-.53,1.11-.67,1.88-1.12,2.28-2.71,2.38-5.75,4.44-8.18,7.07-3.02,3.26-7.1,4.01-10.84,5.63-.42,.18-.83,.39-1.19,1.37,1.11,.08,2.22,.16,3.59,.25-.48,.53-.95,1.04-1.41,1.55-1.58,1.03-3.17,2.07-4.75,3.1-3.32,1.6-6.64,3.2-9.95,4.81-1.9,.67-3.87,1.26-4.19,4.11,2.19-1.11,4.38-2.22,6.56-3.32,1.01-.56,2.02-1.12,3.03-1.68,1.83-.48,3.66-.95,5.5-1.43,0,0,0,0,0,0,0,0,0,0,0,0,2.13-.5,4.2-1.1,5.45-3.15,2.49-1.51,4.99-3.02,7.57-4.57,1.28,1.52-1.67,3.71,.82,5.23,1.02-2.25,1.86-4.52,3.05-6.58,.95-1.65,2.18-3.21,3.53-4.56,5.2-5.17,11.65-7.7,18.78-8.93,9.5-1.64,19.06-.48,28.58-.82,.46-.02,.94,.21,1.85,.43-2.25,5.48-5.25,9.95-10.33,12.72-.96,.52-2.22,.46-3.34,.69-3.33,.67-6.65,1.36-10.66,2.17,1.65,1.54,2.88,1.3,4.04,1.1,1.24-.22,2.46-.57,3.81-.59-6.38,4.17-13.43,7.31-18.65,12.99,.18,.29,.36,.58,.54,.87,.97-.55,1.94-1.11,2.91-1.66,.7-.07,1.39-.13,2.09-.2,.6,1.34,.88,1.5,1.85,1,2.74-3.86,6-6.84,10.75-8.26,3.9-1.16,7.55-3.16,11.54-4.89-.67,2.66-1.91,4.93-3.88,6.74-7.03,6.45-13.82,13.19-21.24,19.15-4.81,3.86-10.54,6.57-15.86,9.79-2.51,.36-5.01,.73-7.52,1.07-1.49,.2-3.34-.4-3.95,1.43,1.83,.71,3.49,1.35,5.99,2.32,1.78-.79,4.43-1.97,7.08-3.15h.02c1.08-.49,2.17-.97,3.25-1.46-.04,.59,.17,1.43-.15,1.73-4.4,4.16-8.88,8.24-13.33,12.34-.81,.74-1.62,1.47-2.44,2.21,.18,.29,.36,.58,.54,.86,1-.5,2-.99,3.08-1.53,.51,.39,1.09,.82,1.84,1.38,1.09-3.24,3.64-4.84,6.08-6.78,5.33-4.24,10.24-9,15.33-13.55,1.32-1.18,2.66-2.32,4.47-3.21-1.31,3.71-2.63,7.42-3.94,11.13,.08,.61,.17,1.23,.36,2.61,.94-1.14,1.54-1.77,2.02-2.49,.54-.79,.98-1.66,1.47-2.49,.53-1.29,1.06-2.59,1.59-3.88,.77-1.82,1.55-3.64,2.32-5.45h0c.97-3.3,3.22-5.56,5.92-7.51,3.63-2.63,7.31-5.2,10.8-8.01,3.54-2.86,6.25-6.47,8.32-10.55,.21-.42,.65-.76,1.04-1.05,.15-.11,.48,.02,1.03,.07-.04,4.03,.55,8.07-.93,12.08-2.63,7.11-4.86,14.38-7.67,21.42-3.1,7.75-5.43,15.72-7.58,23.75-.84,3.15-2.94,5.09-5.18,7.03-1.35,1.17-2.79,2.22-4.19,3.32-3.12,.8-4.35,3.64-5.97,5.34v4.7c1.85-1.6,3.12-2.7,4.39-3.8,.81-.74,1.62-1.49,2.43-2.23t0,0c1.95-1.45,3.9-2.91,5.96-4.44,.16,1.62,.28,2.97,.41,4.28,1.66,.14,2.1-.68,2.14-1.84,.06-1.41,.07-2.82,.1-4.23,1.55-3.06,3.16-6.08,4.63-9.18,.48-1.01,.47-2.25,.86-3.31,.41-1.11,1.05-2.14,2.01-4.06,.73,2.69,.91,4.51,1.69,6.03,2.34,4.55,4.87,9,7.4,13.46,2.63,4.64,4.5,9.48,4.35,14.32-3.42,4.24-6.58,7.94-9.49,11.84-2.22,2.97-4.28,6.09-6.11,9.32-2.16,3.79-5.36,6.09-9.31,7.56-.16,.34-.31,.69-.67,1.47,1.48-.46,2.67-.83,4.49-1.4-1.31,1.69-2.33,2.87-3.16,4.18-.28,.44-.04,1.2-.03,1.81,3.93-3.62,7.9-7.2,10.99-11.63l1.27,3.08c.28,.03,.56,.06,.83,.09,.29-.78,.59-1.57,.88-2.35,.82-1.56,1.63-3.13,2.45-4.69,2.93-2.73,4.03-6.49,5.59-10,1.22-.85,2.44-1.7,3.65-2.55,.18,.14,.36,.27,.54,.41-1.43,5.1-2.96,10.17-4.27,15.3-1.23,4.83-2.45,9.68-3.28,14.58-.65,3.85,.48,7.64,1.45,11.39,.46,1.78,.46,3.68,.7,5.82,.31,.06,1.23,.23,2.44,.45-.87-8.84-2.2-17.67,1.29-26.49,.6,2.34,1.36,4.25,2.37,6.03,.27-.06,.54-.11,.81-.17,.11-.55,.47-1.2,.29-1.63-1.84-4.41-.3-8.63,.7-12.85,1.18-4.98,2.59-9.9,3.85-14.86,.21-.84,.15-1.76,.22-2.66,3.51,.78,13.9,11.5,20.72,21.35,.96,.06,2.01,.13,3.82,.24-1.9-2.48-3.5-4.57-5.09-6.66h0c-.74-1.23-1.48-2.46-2.28-3.78,.23-.49,.54-1.13,.98-2.04-.96-.65-1.83-1.24-2.71-1.83-8.34-6.61-14.38-15.26-20.52-23.77-5.51-7.64-7.21-16.17-6.02-27.46,4.32,2.16,7.93,5.09,11.88,7.41,1.52,.82,3.04,1.64,4.55,2.46,4.65,3.18,9.62,5.91,13.53,10.13,1.88,2.03,3.43,3.95,3.69,6.97,.16,1.83,.06,4.22,2.08,5.54,.48,.09,.97,.19,1.44,.28-.14-1.41-.29-2.85-.43-4.3h0c-1.46-1.08-.69-2.37-.48-4.32,.95,.91,1.5,1.44,2.05,1.96l-.04,.04c.85,.46,1.84,.77,2.52,1.42,2.1,2.02,4.07,4.16,6.09,6.26,.46,.33,.93,.66,1.39,.98,1.24,.33,2.48,.67,4.23,1.14-.79-.89-1.28-1.45-1.78-2.02-1.08-.76-2.17-1.52-3.25-2.28-.12-.34-.16-.76-.38-1.01-3.08-3.31-6.15-6.63-9.31-9.86-.97-.99-2.17-1.75-3.27-2.61,.72,.94,1.38,1.93,2.08,2.89-.7-.96-1.37-1.95-2.08-2.89-1.47-1.4-2.95-2.8-4.96-4.72h5.49c-.16-.58-.18-.99-.3-1.02-5.63-1.36-10.85-3.5-15.71-6.82-4.47-3.06-9.01-5.95-12.76-9.93-3.15-3.33-3.44-6.29-1.69-10.61,2.16-5.34,3.89-10.87,5.81-16.31,.26-.73,.54-1.44,.82-2.17,.88-2.34,2.11-3.04,4.45-2.18,5.18,1.92,10.49,3.6,15.41,6.06,5.36,2.69,8.81,7.46,11,13.05,1.65,4.19,2.66,8.48,3.14,13.02,.32,2.97,1.99,5.81,3.17,8.66,.19,.47,.93,.72,1.64,1.23,1.42-2.95-1.93-5.01-.69-7.75,2.87,3.4,5.52,6.87,8.53,10,3.03,3.15,6.43,5.94,9.66,8.89,1.4,1.28,2.79,2.58,4.19,3.87,.33-.14,.67-.27,.83-.34-.55-1.71-1.1-3.39-1.65-5.07-7.94-5.21-13.4-12.65-18.1-20.68-1.45-2.49-1.84-5.58-3.08-8.22-2.51-5.31-3.36-11.39-7.34-16.04-.43-.5-.46-1.36-.85-2.62,6.69,.73,12.33,2.57,17.01,6.93,2.48-.13,3.95,1.49,5.41,3.14h0c3.01,1.91,6.02,3.82,9.13,5.79,1.4-.41,2.78-.81,4.63-1.34-4.67-2.22-8.79-4.18-12.91-6.14-.03-.19-.11-.37-.23-.52-.61-.95-1.21-1.9-1.87-2.93,.79-.1,1.38-.18,1.98-.26h0c3.16,1.33,6.23,3,10.23,3.09-2.39-5.4-6.8-5.2-11.01-5.41h-.01c-1.8-.53-3.6-1.06-5.41-1.59-4.36-1.47-8.68-3.11-13.1-4.37-3.79-1.08-7.67-2.08-11.58-2.47-4.19-.41-7.65-2.43-10.99-4.47-2.99-1.82-5.78-4.06-7.94-7.15-2.69-3.84-4.2-7.9-4.61-12.47-.03-.36,.15-.75,.35-1.6,.99-.06,2.16-.42,3.16-.15,8.87,2.44,17.91,3.12,27.06,2.81,4.35-.15,7.38,2.68,10.71,4.8,2.37,1.51,4.66,3.15,6.98,4.73,2.04,3.42,5.99,3.49,8.72,5.57,1.46-1.42,1.12-2.04-.24-2.37,0,0,0,0,0,0-.96-.59-1.91-1.17-2.87-1.76-.1-.07-.21-.14-.32-.21,.11,.07,.21,.14,.32,.21,1.22-.2,2.45-.4,3.67-.6-.21-.13-.41-.25-.62-.36,.21,.11,.42,.23,.62,.36,3.66,1.08,7.37,2.04,10.98,3.28,3.13,1.08,6.16,2.47,9.23,3.72,1.42,.29,2.98,1.23,3.92-.82-2.77-1.39-5.53-2.77-9.13-4.57,2.08-.5,3.36-.8,5.55-1.33-4.63-.54-8.48-.66-12.16-1.52-3.85-.9-7.55-2.43-11.28-3.81-3.62-1.35-7.45-2.34-10.21-5.66,2.97,.47,5.92,.99,8.9,1.4,4.17,.58,8.34,1.38,12.54,1.54,6.59,.26,13.21,.33,19.8,.01,8.89-.43,17.04,1.86,24.86,5.79,1.33,.67,2.69,1.28,4.04,1.92,.21-.28,.42-.57,.63-.85-1.07-1.02-2.14-2.03-3.43-3.26,2.22-1.52,4.57-.32,6.7-.73,2.18-.42,4.36-.89,6.54-1.33,0-.29-.02-.58-.03-.86-.78-.2-1.57-.58-2.35-.56-10.02,.3-19.65-1.59-29.03-4.99-.71-.26-1.48-.5-2.23-.54-6.68-.33-13.36-.79-20.04-.86-5.32-.05-10.36-1.52-15.51-2.41-4.28-.73-8.52-1.69-12.82-2.23-6.09-.76-12.25-1.01-18.32-1.9-4.66-.68-9.21-2.03-13.82-3.05-2.36-.52-4.78-.86-7.11-1.5-1.66-.46-3.22-1.29-4.82-1.96,.07-.26,.15-.52,.22-.78h247.72c0,1.68,.1,3.46-.02,5.22Zm-287.12,104.79c-.31,.34-.65,.7-.99,1.08h0c.35-.38,.68-.74,.99-1.08Zm100-58.37c.14,.09,.29,.19,.45,.3h0c-.16-.11-.31-.21-.45-.3Zm-6.55-23.63c-.26-.17-.55-.37-.9-.61,.35,.24,.64,.43,.9,.61Zm193.79-29.2c-1.34,.04-2.7,.12-4.05,.12-62.06,0-124.11,0-186.17,0-3.88,0-7.75-.08-11.63-.12-2.9,0-5.79-.01-8.69-.02-.43,0-.86,0-1.29,0-12.53,0-25.06,0-37.11,0-2.15-1.14-3.91-2.08-6.28-3.35-.52-3.47-.14-7.59-.19-11.69-.05-4.01,.07-8.03,.11-12.04-.07-1.55-.21-3.1-.21-4.65-.02-15.45-.02-30.89-.03-46.34,0-1.29,0-2.57,0-4.03,1.06-.35,1.96-.65,3.19-1.06-1.12-1.4-2.06-2.58-3.18-3.99,0-6.78-.05-13.78,.02-20.78,.04-3.61,2.01-4.71,5.36-3.16,.82,.38,1.61,.82,2.41,1.23,4.86,2.33,9.72,4.64,14.56,7,1.14,.56,2.14,1.39,3.27,1.96,9.23,4.66,31.38,16.3,33.11,17.42,1.43-.34,2.67-.63,4.56-1.09-6.93-3.66-13.38-7.05-19.82-10.45-2.33-1.32-4.63-2.73-7.01-3.95-5.28-2.71-10.64-5.29-15.91-8.02-3.41-1.77-6.78-3.63-10.09-5.58-3.58-2.11-3.56-6,.11-7.99,2.01-1.09,4.25-1.74,6.42-2.53,5.4-1.96,10.81-3.9,16.23-5.8,.84-.29,12.02-4.24,16.74-6.02,4.15-1.57,8.36-3.01,12.54-4.51,6.09-2.18,12.18-4.37,18.28-6.55,.72-.26,1.53-.32,2.17-.69,2-1.18,3.87-.87,5.83,.13,6.32,3.22,12.67,6.38,19.01,9.55,1.11,.55,2.25,1.03,3.51,1.6,.92-2.19,.62-3.25-.73-3.91-2.42-1.21-4.13-2.17-6.52-3.45-.6-.32-2.52-.96-3.01-1.48-1.48-.8-2.96-1.6-5.29-2.85,2.23-.57,3.51-.91,5.62-1.45-2.22-1.2-3.81-2.16-5.48-2.92-2.68-1.23-5.46-2.24-8.12-3.51-3.91-1.87-4.64-2.02-9.12-.94-6.15-3.07-12.55-6.15-18.84-9.45-2.35-1.24-4.06-.76-6.09,1.04,8.2,4.28,16.11,8.41,24.01,12.57,.1,.05,.01,.48,.01,1.02-9.38,3.31-18.87,6.6-28.31,10.02-5.39,1.95-10.69,4.17-16.07,6.17-5.61,2.09-11.28,4-16.88,6.11-5.49,2.07-10.93,4.3-16.41,6.41-1.31,.5-2.7,.79-4.47,1.3-5.59-2.8-11.47-5.75-17.34-8.69-3.37-1.51-12.86-6.4-14.34-7.15-7.94-4.05-15.91-8.03-23.86-12.04-.56-.28-1.06-.68-1.59-1.02-1.15,.1-2.29,.2-3.44,.3-.04,.28-.08,.56-.12,.84,.68,.46,1.32,1,2.05,1.37,5.49,2.79,24.23,13,28.1,15.35,8.14,4.09,16.29,8.18,24.41,12.31,.22,.11,.21,.69,.38,1.29-5.06,1.77-10.08,3.48-15.06,5.29-4.77,1.73-9.49,3.61-14.27,5.32-.73,.26-1.64,.01-2.47,0-.69-.53-1.33-1.18-2.09-1.57-9.3-4.88-18.6-9.74-27.93-14.55-1.89-.98-3.9-1.72-5.99-2.63-.44,.92-.71,1.46-.92,1.9,11.49,6.05,22.85,12.02,34.2,18-.41,.64-.81,1.28-1.22,1.93-2.66,.82-5.35,1.55-7.98,2.47-6.11,2.14-12.18,4.37-18.26,6.59-.59,.21-1.1,.62-1.73,.99-1.52-.77-2.99-1.52-4.46-2.26-.09,.01-.19,.03-.29,.04,.1-.01,.19-.03,.29-.04-7.64-4.85-15.27-9.71-22.93-14.53-1.4-.88-2.37-.32-3.11,1.39,8.18,4.98,16.25,9.89,24.33,14.81,.24,.56,.47,1.11,.68,1.6-4.3,1.63-8.4,3.32-12.6,4.73-3.71,1.25-7.1,3.82-11.36,2.99-5.49-3.79-10.94-7.63-16.5-11.31-.86-.57-2.21-.4-3.52-.09,5.51,5.27,12.33,8.56,18.11,13.32-2.03,2.03-18.93,7.97-23.61,8.94-.84,.31-1.67,.62-2.51,.93h0c.84-.31,1.67-.62,2.51-.93-7.02-4.15-14.01-8.33-21.06-12.42-1.21-.7-2.61-.92-4.06,.72,7.63,4.28,15.07,8.45,22.51,12.62-1.32,.71-2.58,1.54-3.96,2.08-1.77,.69-3.21,1.06-5.29,1.85-3.33,1.26-7.4,2.07-7.45,2.02-1.59-1.55-4.92-4.12-4.93-4.12-.41,.3-.78,.53-1.68,1.24,2.27,2.83,2.27,2.56,3.56,4.15,.21,.31,.3,.82-.01,.93-4.1,1.51-10.04,3.59-11.94,4.24-3.01,.11-4.54-4.56-8.56-2.57,1.35,1.26,2.58,2.41,4.26,3.98-3.76,1.48-3.86,1.75-7.22,2.84-.97,.31-4.02,1.41-4.02,1.41-.81-.71-1.64-1.61-2.51-2.68-.93,.41-1.38,.59-2.6,1.15,.89,1.09,1.6,1.86,2.36,2.66-.7,.31-2.69,.98-2.94,1.07-2.16,.77-4.32,1.87-6.54,2.04-1.4,.1-2.93-1.17-4.35-1.92-1.45-.76-2.87-2.01-4.13,.53,1.43,.94,2.79,1.85,4.71,3.11-1.79,.76-2.88,1.07-3.79,1.66-1,.64-1.34,1.58-.22,2.53,2.57-.59,5.14-1.19,8.22-1.9,.61,.69,1.39,1.58,2.17,2.46,.97,1.57,1.91,.28,2.86-.02-.27-.67-.67-1.32-.76-2.01-.07-.56,.24-1.17,.38-1.75,.07-.11,.16-.21,.27-.28,1.19-.43,2.38-.86,3.57-1.29,1.31-.41,4.15-1.34,4.07-1.45-.04-.05,2.81,2.71,3.69,3.85,.39-.09,2.17-.81,3.15-1.32-1.74-1.62-2.18-2.02-3.82-3.89,4.56-1.53,8.04-2.72,12.29-4.15,1.93,1.39,3.76,2.76,5.64,4.05,1.27,.88,1.3,.83,3.26-.45-1.06-2.4-3.7-2.69-5.59-5.18,.46-.29,1.04-.54,1.49-.7,2.64-.92,5.37-1.62,7.93-2.73,2.2-.96,4.1-1.28,6.09,.38,1.38,1.15,2.87,2.17,4.38,3.13,1.25,.79,1.56,1.84,3.97,.22,1.59-1.07-3.29-3.54-6.76-6.13,5.04-1.96,9.84-3.94,14.73-5.64,.87-.3,2.25,.35,3.21,.89,6.92,3.89,13.79,7.85,20.67,11.8,1.41,.81,2.73,1.88,4.95,1.11-.56-.73-.85-1.45-1.38-1.76-5.57-3.23-11.19-6.37-16.76-9.58-1.65-.95-3.2-2.07-5.43-3.52,7.41-4.25,15.27-5.47,22.02-8.92,7.14,4.83,13.92,9.47,20.78,13.98,1.02,.67,2.45,.73,3.92,.56-6.41-5.62-13.73-9.77-20.74-14.88,.72-.65,1.25-1.48,1.99-1.75,5.5-2.01,11.03-3.91,16.55-5.84,1.32-.46,2.66-.9,3.99-1.34,2.19-.72,3.58,1.02,5.3,1.75,1.99,1.34,3.95,2.74,5.99,4,6.33,3.9,12.68,7.74,19.03,11.59,1.44,.87,2.91,1.43,4.81-.2-.58-.35-.9-.55-1.22-.74-7.5-4.65-14.97-9.34-22.51-13.94-1.62-.99-6.17-3.56-6.82-4.32,3.22-1.11,6.16-2.13,9.11-3.14,6.25-2.15,12.48-4.35,18.77-6.39,1.78-.58,3.71-.65,5.57-.96,.47,.43,.86,1,1.41,1.28,7.91,4.11,15.85,8.15,23.75,12.28,1.55,.81,2.93,1.94,4.39,2.92,.2-.09,.39-.07,.57,.05l.28-.25c.21,1.23,.6,2.46,.6,3.69,.04,14.37,.16,28.75-.02,43.12-.15,12-.66,24-1.02,36.2-1.32,.83-2.89,1.83-4.47,2.83-5.43,.03-10.87,.09-16.3,.09-74.94,.02-149.87,.04-224.81,.05-.38,0-.77-.08-1.15-.13H3.29c0-6.09-.29-12.06,.06-17.99,.77-13.1,2.27-26.13,5.1-38.98,11.04-50.13,35.33-92.71,72.48-127.89,29.27-27.72,63.36-47.19,101.78-58.97,19.1-5.85,38.67-9.23,58.63-10.57,19.2-1.3,38.28-.42,57.27,2.46,33.59,5.09,64.98,16.41,94.13,33.93,30.84,18.55,56.72,42.53,77.4,72.07,18.09,25.85,30.89,54.18,37.8,85.03,2.15,9.6,3.3,19.43,4.91,29.15,.17,1.75,.33,3.51,.5,5.26,.05,1.59,.11,3.17,.16,4.76,.21,.7,.6,1.4,.61,2.11,.05,6.36,.03,12.72,.03,19.59ZM253.89,175.3h0c-.35,.46-.71,.92-1.08,1.4,.37-.49,.73-.94,1.08-1.4Zm-2.22-.41c-7.27-3.83-14.51-7.7-21.74-11.59-1.34-.72-2.58-1.61-3.91-2.44,1.96-1.9,15.08-6.85,19.19-7.28,.13,1.47,.25,2.94,.4,4.59,2.65-.63,5.06-1.2,8.11-1.92,.06,6.75,.11,12.9,.16,19.05-.74-.12-1.57-.07-2.21-.41Z"/><path class="cls-17" d="M307.32,233.76c-1.82,1.57-3.64,3.13-5.46,4.7,.02,.25,.01,.45-.02,.64,.03-.18,.04-.39,.02-.64-.47,.13-.93,.26-1.75,.49v-22.52c-4.48,4.2-5.4,9.33-6.76,14.25,0,0,0,0,0,0-2.53,6.06-5.08,12.12-7.57,18.2-.47,1.15-.69,2.4-1.02,3.6h0c-.71,.64-1.43,1.29-2.11,1.9-.85-5.28-1.25-10.5-.35-15.82,.32-1.91,.91-4.29-1.03-6.24-2.19,2.29-2.92,4.96-3.44,7.72h0c-.52,1.3-1.04,2.6-1.56,3.89,0,0,0,0,0,0-.54,1.29-1.08,2.58-1.62,3.86-.69,1.54-1.38,3.08-2.47,5.51-3.51-9.65-6.71-18.48-9.92-27.3-.36-.11-.72-.23-1.5-.47v14.08c-.23,.05-.46,.09-.7,.14-.5-.92-1-1.83-1.5-2.75-.04,4.01-.16,8.03-.11,12.04,.05,4.1-.33,8.22,.19,11.69,2.37,1.26,4.13,2.2,6.28,3.35h37.11c-.05-.39,0-.81-.15-1.15-2.28-5.06-.88-10.17,.15-15.12,.66-3.16,2.48-6.09,3.91-9.06,.87-1.79,2.01-3.45,3.24-5.53-.96,.27-1.42,.4-1.87,.53Zm-8.27-13.38c-.28-.08-.56-.16-.83-.25h0c.28,.08,.56,.16,.83,.25Zm-4.15,6.88c.52-1.14,1.03-2.29,1.55-3.43,.28-.62,.59-1.23,.88-1.85-.3,.62-.6,1.23-.88,1.85-.52,1.14-1.03,2.28-1.55,3.43Z"/><path class="cls-10" d="M390.89,240.03l-3.05-7.86c2.04,2.22,3.34,4.73,3.05,7.86Z"/><path class="cls-11" d="M276.68,243.94c-.54,1.29-1.08,2.58-1.62,3.86,.54-1.29,1.08-2.58,1.62-3.86Z"/><path class="cls-18" d="M310.88,218.18c-1.04-.76-2.09-1.52-3.13-2.29,1.04,.76,2.09,1.52,3.13,2.29Z"/><path class="cls-17" d="M514.25,244.51c0-.7-.4-1.4-.61-2.11-1.04-3.01-1.99-6.05-3.16-9.01-1.41-3.57-3.02-7.05-4.54-10.57h0c-.56-1.26-1.12-2.51-1.68-3.77-.25-.29-.51-.58-.76-.88-1.26-3.19-2.44-6.46-6.01-8.56,4.11,10.98,5.91,31.27,3.26,34.51-1.74-12.45-3.49-24.97-5.23-37.48-.41-.02-.81-.04-1.22-.07-2.08,4.36-1.56,9.2-1.74,13.91-.74,4.02-1.6,8.02-2.19,12.07-1.13,7.82-2.11,15.66-3.15,23.5-.31,.02-.63,.04-.94,.06-2.34-6.14-1.67-13.24-5.26-19.57-2.02,5.49-1.66,10.9-4.06,16.32-1.6-7.94-1.95-25.92-.96-32.75,.27-1.84,.91-3.94-.92-5.88-4.17,7.34-5.53,15.45-8.96,23.69-2.06-3.02-3.55-5.35-5.19-7.57-1.75-2.38-3.55-4.74-5.51-6.94-1.8-2.01-3.85-3.79-6.38-6.25,1.61,3.48,2.83,6.1,4.05,8.72h0c1.02,2.36,2.05,4.73,3.07,7.09,0,0,0,0,0,0,.21,1.76,.42,3.52,.64,5.3-1.11,.13-1.73,.21-2.36,.28-.23-.27-.46-.54-.7-.8-.78-1.31-1.57-2.62-2.35-3.93-1.05-1.26-2.1-2.53-3.15-3.79-2.05-2.12-4.09-4.24-6.14-6.36-1.59-1.28-3.18-2.56-4.77-3.84-2.06-1.6-4.12-3.2-6.19-4.79-.2,.24-.4,.47-.59,.71,2.28,2.4,4.57,4.8,6.85,7.2,3.16,5.07,6.26,9.94,7.67,16.1,1.49,6.52,.13,12.24-1.51,18.19-.17,.6-.91,1.05-1.91,2.13-1.36-4.06-1.95-7.65-2.61-11.23-.65-3.55-1-7.22-2.88-10.37-.32,.02-.63,.03-.95,.05-1.17,5.39-2.34,10.79-3.5,16.18-1.44-2.08-2.39-4.13-2.81-6.29-.73-3.79-1.01-7.67-1.68-11.48-1.01-5.79-.98-11.53-.02-17.33,.31-1.89,.05-3.87,.05-5.81-2.32,2.89-4.09,5.84-5.37,9-1.39,3.4-3.11,6.2-6.94,7.05h0c-1.4,.47-2.8,.94-4.42,1.48-1.46-3.79-1.06-8.07-4-11.82-.6,4.1-1.11,7.61-1.62,11.12-.08,1.79-.16,3.58-.24,5.45-4.44,2.22-7.32,6.37-11.63,8.9-.88-1.74-1.51-2.99-2.14-4.25-1.02-2.62-2.03-5.24-3.05-7.86,0-.24-.04-.47-.1-.71-1.46-.58-1.71-1.75-1.52-3.14,0,0,0,0,0,0-.74-2.43-1.07-5.15-4.54-6.56,.59,5.78,1.37,11.04,1.61,16.32,.24,5.39-.05,10.8-.11,16.21-.12-.01-.24-.03-.37-.04-1.19-3.98-2.37-7.95-3.56-11.93-1-4.85-2-9.71-3-14.56-3.07,5.36-2.21,11.53-5.02,16.69-.99-8.72,.09-17.45-.75-26.1-.32-.05-.65-.1-.97-.15-3.97,12.14-7.94,24.28-11.9,36.42l-.96-.03c-.69-3.17-1.46-6.33-2.06-9.53-.93-4.93-1.74-9.88-2.62-14.82-.59-3.36-1.21-6.72-1.81-10.08-.25-.04-.49-.08-.74-.12-.46,2.19-1.03,4.36-1.35,6.57-.62,4.21-1.01,8.46-1.67,12.66-.88,5.6-2,11.15-2.86,16.75-.23,1.52-.75,2.51-2.22,3.26-.37-.98-.81-1.68-.88-2.42-.52-6.31-1.46-12.63-1.31-18.93,.16-6.67,.35-13.45,2.74-19.88,.37-1.01,.05-2.28,.05-3.43-5.32,7.11-8.82,14.83-11.78,22.76-2.09-.78-2.14-2.31-2.13-3.94,.04-6.49,.05-12.99,.05-19.48,0-1.08-.15-2.16-.23-3.23-3.51,4.72-3.95,10.6-6.74,15.86-3.71-3.07-6.96-5.77-10.22-8.46-1.04-.76-2.09-1.52-3.13-2.29-.3-.26-.61-.52-.91-.78-.24-.05-.48-.11-.71-.17-.46-.13-.91-.3-1.32-.5,.41,.21,.85,.37,1.32,.5,.23,.07,.47,.12,.71,.17-1.51-1.04-3.02-2.08-4.53-3.11-.83-.52-1.66-1.04-2.49-1.55-2.74-2.02-5.4-4.19-9.01-4.8,2.49,1.91,4.98,3.81,7.48,5.72l2.38,2.21c.78,.8,1.57,1.6,2.35,2.4,1.5,1.57,3,3.13,4.5,4.7,1.36,1.79,2.72,3.58,4.08,5.38h0c.03,.23,.05,.45,.06,.68,1.58,2.43,3.14,4.88,4.74,7.3,2.54,3.86,2.5,7.75,.91,12.06-.9,2.45-.63,5.33-.97,8.01-.32,2.48-.75,4.94-1.13,7.41-.26,0-.52-.01-.78-.02-.4-1.2-.8-2.39-1.21-3.59,.01-.26,.08-.53,.03-.78-.79-4.43-2.66-8.62-2.63-13.24,0-.96-.93-1.92-1.44-2.88-1.06,2.14-1.45,4.14-1.87,6.13-1.18,5.65-2.38,11.3-3.57,16.96,2.9,0,5.79,.01,8.69,.02,3.88,.04,7.75,.12,11.63,.12,62.06,0,124.11,0,186.17,0,1.36,0,2.71-.08,4.05-.12,0-6.87,.02-13.23-.03-19.59Zm-100.91-13.74c.5-.31,.94-.74,1.34-1.28-.4,.53-.85,.96-1.34,1.28-.4,.26-.84,.44-1.31,.55,.47-.11,.9-.29,1.31-.55Zm.45,16.67c-.05,.2-.64,.27-1.34,.54-.69-3.6-1.35-7.05-2.08-10.84,2.07-1.9,4.22-3.86,6.36-5.82,.29,.28,.57,.56,.86,.84-1.26,5.1-2.5,10.2-3.8,15.28Zm42.4-14.45c.28,.21,.67,.41,.91,.63-.24-.22-.63-.41-.91-.63Zm.65,12.4c.2,.89,.23,1.97,1.36,2.13-1.13-.16-1.15-1.25-1.36-2.13Zm43.94,3.64c-.26-.56-.48-1.11-.67-1.67,.19,.55,.41,1.11,.67,1.67h0Z"/><path class="cls-10" d="M387.74,231.46c-1.46-.58-1.71-1.75-1.52-3.14,.51,1.05,1.02,2.09,1.52,3.14Z"/><path class="cls-17" d="M251.06,241.56c.86-2.31,.06-7.56-1.54-10.12-1.13,1.72,1.89,3.63,.3,5.12-1.58-1.53-2.96-2.86-4.34-4.19-.5-.78-1-1.56-1.5-2.34-1.28-1.34-2.56-2.68-3.84-4.02-.26-.26-.52-.51-.78-.77-3.13-2.58-6.27-5.16-9.4-7.73v.02c-.26,.02-.52,.05-1.21,.11,1.36,1.8,2.5,3.51,3.84,5.05,5.54,6.36,8.42,13.98,8.8,22.18,.2,4.32-1.8,8.75-2.81,13.12-.87,.95-1.74,1.91-2.67,2.92-.72-2.52-1.33-4.68-1.95-6.84-1.34-5.61-2.68-11.21-4.05-16.81-.03-.11-.45-.12-.92-.24-1.47,3.39-.41,7.49-2.71,11.57-4.2-11.88-3.24-23.24-2.19-35-.93,.67-1.4,1.02-1.87,1.36l-.07,.07c-.99,1.85-1.97,3.71-2.96,5.56-.84,1.71-1.67,3.43-2.39,4.9-3.45,1.52-6.56,2.9-10.17,4.49-.61-3.33-1.15-6.33-1.7-9.32-.35,0-.7,.01-1.05,.02-.68,4.09-1.37,8.18-1.97,11.78-3.88,2.98-7.33,5.64-10.79,8.3-1.2,.63-2.41,1.27-4.01,2.11,.36-5.65,.7-11.02,1.03-16.39-.24-.11-.49-.22-.73-.33-.54,1.01-1.08,2.02-1.62,3.02-.04,.23-.08,.46-.1,.69-1.38,.59-1.63,1.77-1.6,3.1-.11,.07-.28,.12-.31,.22-2.25,6.52-4.47,13.05-6.72,19.57-.21,.62-.56,1.2-1.02,2.17-1.39-4.3-2.55-8.06-1.29-12.17,1.71-5.56,3.98-10.8,7.93-15.17,1.83-2.11,3.66-4.21,5.5-6.32-.21-.2-.42-.41-.63-.61-2.45,1.38-4.76,2.94-6.57,5.21-3.37,2.92-6.73,5.85-10.39,9.03-3.78-6.72-5.56-14.4-11.85-20.11,5.39,15.44,4.98,39.58,.06,45-2.1-12.71-4.13-25.01-6.16-37.31-.33,0-.65,.02-.98,.03-2.13,11.41-4.26,22.82-6.38,34.23l-.79-.03c-2-6.09-4-12.18-5.99-18.27-1.35-4.14-2.67-8.3-4.01-12.45-.08-3.67-1.31-6.78-4.65-9.76,0,4.49,.24,8.25-.07,11.96-.31,3.64,1.84,7.23,.3,11-.77-.54-1.35-.95-1.93-1.36-3.33-3.95-6.65-7.89-9.98-11.84-.45,.09-.89,.17-1.33,.26,.2,1.38,.36,2.53,.53,3.68,.79,1.55,1.57,3.1,2.36,4.65,.33,2.01,.69,4.01,.99,6.02,.34,2.29,.64,4.6,.95,6.9-1.42-3.05-2.79-5.86-4.25-7.44-1.09-2.84-1.81-5.9-3.36-8.46-1.92-3.18-3.11-6.94-6.6-9.68,1.48,8.94,2.99,17.4,1.42,26-.46,.9-.91,1.79-1.76,3.48-.29-1.78-.42-2.84-.64-3.88-.2-.92-.51-1.82-.77-2.73h0c-1.94-3.76-2.56-7.87-3.05-12-.19-1.62,.22-3.55-2.33-3.6h0c.38,6.27-1.44,12.04-3.94,17.74-1.19-2.79-.68-5.71-.76-8.55-.08-2.98,.02-5.96,.03-8.94,0-2.97,0-5.95,0-9.3-1.41,2.75-2.63,5.13-3.86,7.51-1.02,3.16-2.03,6.33-3.06,9.49-1.98,6.14-3.97,12.27-5.95,18.41-1.12-1.69-1.62-3.34-1.89-5.04-.44-2.79-.35-5.72-1.16-8.39-1.37-4.48-1.9-9-2.04-13.63-.71-2.77-1.42-5.54-2.13-8.31l-.5,.11c-2.26,13.05-4.52,26.11-6.78,39.16-.32,.06-.65,.12-.97,.18-.42-.79-1.05-1.55-1.21-2.39-1.52-7.92-2.13-15.94-1.5-23.98,.41-5.21,1.38-10.37,2.77-15.57,1.27,.55,2.16,.93,3.04,1.31-.78-.88-1.56-1.77-2.17-2.46-3.08,.71-5.65,1.3-8.22,1.9,1.1,.32,2.21,.65,3.49,1.03-2.36,5.12-4.73,10.24-7.19,15.57-4-4.64-7.59-8.79-11.17-12.95-2.05,.22-1.68,1.23-1.03,2.64,1.21,2.61,2.24,5.31,3.3,7.99,.13,.33,0,.76-.02,1.14,2.02,4.72,1.54,9.71,1.51,14.64,0,1.24,.18,2.64-1.67,3.13-1.2-1.52-2.42-3.05-3.64-4.58-1.59-3.04-.66-6.19-.44-9.32,.14-1.98,.25-3.95,.42-6.6-1.52,1.3-2.34,2-3.16,2.7-.65,1.13-1.29,2.25-2.16,3.76-3.88-3.66-5.75-8.05-8.66-11.64-1.34-1.76-2.69-3.52-4.03-5.28-.24,.12-.48,.24-.72,.37,.63,3.37,1.16,6.76,1.92,10.09,1.15,5.13,2.23,10.29,3.77,15.3,1.04,3.39,1.66,6.72,1.39,10.24-.05,.62-.18,1.23-.31,2.07-1.88-.49-2.5-1.56-2.83-3.27-1.47-7.55-3.07-15.07-4.7-22.59-.26-1.21-.94-2.33-1.49-3.67-.98,.26-1.68,.44-2.37,.62-1.35,1.07-.29,2.15,0,3.23,.36,2.98-.94,5.6-1.3,8.56-2.73-1.25-3.64-3.04-3.27-5.37-1-.33-2.13-.37-2.65-.95-.68-.77-.88-1.97-1.29-2.99-.58-.78-1.17-1.56-2.25-3.02-.76,4.46,.57,7.59,1.5,10.64,.65,2.13,.58,3.85-.01,5.95-1.72,6.06-3.12,12.21-4.64,18.32,.38,.04,.77,.13,1.15,.13,74.94,0,149.87-.02,224.81-.05,5.43,0,10.87-.06,16.3-.09,1.08-1.26,2.16-2.51,3.24-3.77,.22,.13,.45,.25,.67,.38v-18.36c-.48-.27-.96-.55-1.44-.82Zm-38.04-3.15c-.86,3.45-1.56,6.94-2.34,10.41-1.51-1.69-2.06-3.3-2.33-6.28-.2-2.17-.64-4.32-.76-6.48-.05-.95,.11-2.26,.71-2.85,2.17-2.1,4.57-3.96,6.88-5.91,.23,.25,.45,.51,.68,.76-.95,3.45-1.97,6.88-2.84,10.34Z"/><ellipse class="cls-3" cx="259.34" cy="258.12" rx="251.9" ry="250.68"/><text class="cls-5" transform="translate(83.85 395.06) rotate(54.35)"><tspan x="0" y="0">E</tspan></text><text class="cls-5" transform="translate(93.74 408.8) rotate(49.84)"><tspan x="0" y="0">g</tspan></text><text class="cls-5" transform="translate(104.13 421.17) rotate(45.2)"><tspan x="0" y="0">o</tspan></text><text class="cls-5" transform="translate(116.94 433.85) rotate(41.71)"><tspan x="0" y="0"> </tspan></text><text class="cls-5" transform="translate(122.57 438.99) rotate(38.74)"><tspan x="0" y="0">c</tspan></text><text class="cls-5" transform="translate(133.76 448.05) rotate(34.35)"><tspan x="0" y="0">o</tspan></text><text class="cls-5" transform="translate(148.97 458.42) rotate(29.35)"><tspan x="0" y="0">n</tspan></text><text class="cls-5" transform="translate(164.71 467.09) rotate(25.81)"><tspan x="0" y="0">i</tspan></text><text class="cls-5" transform="translate(171.71 470.63) rotate(22.42)"><tspan x="0" y="0">e</tspan></text><text class="cls-5" transform="translate(187.67 477.15) rotate(18.04)"><tspan x="0" y="0">c</tspan></text><text class="cls-5" transform="translate(201.45 481.58) rotate(14.47)"><tspan x="0" y="0">t</tspan></text><text class="cls-5" transform="translate(212.33 484.52) rotate(10.49)"><tspan x="0" y="0">o</tspan></text><text class="cls-5" transform="translate(230.07 487.64) rotate(6.97)"><tspan x="0" y="0"> </tspan></text><text class="cls-5" transform="translate(237.71 488.7) rotate(3.67)"><tspan x="0" y="0">E</tspan></text><text class="cls-5" transform="translate(254.37 489.87) rotate(-1.45)"><tspan x="0" y="0">G</tspan></text><text class="cls-5" transform="translate(276.6 489.3) rotate(-7.61)"><tspan x="0" y="0">O</tspan></text><text class="cls-5" transform="translate(299.14 486.01) rotate(-11.8)"><tspan x="0" y="0"> </tspan></text><text class="cls-5" transform="translate(306.78 484.57) rotate(-15.29)"><tspan x="0" y="0">P</tspan></text><text class="cls-5" transform="translate(323.42 480.02) rotate(-19.93)"><tspan x="0" y="0">e</tspan></text><text class="cls-5" transform="translate(339.74 474.11) rotate(-24.82)"><tspan x="0" y="0">d</tspan></text><text class="cls-5" transform="translate(356 466.41) rotate(-28.36)"><tspan x="0" y="0">i</tspan></text><text class="cls-5" transform="translate(362.85 462.81) rotate(-31.37)"><tspan x="0" y="0">c</tspan></text><text class="cls-5" transform="translate(375.1 455.39) rotate(-35.53)"><tspan x="0" y="0">a</tspan></text><text class="cls-5" transform="translate(388.71 445.69) rotate(-40.27)"><tspan x="0" y="0">b</tspan></text><text class="cls-5" transform="translate(402.69 433.83) rotate(-45.24)"><tspan x="0" y="0">o</tspan></text><text class="cls-5" transform="translate(415.27 420.92) rotate(-48.73)"><tspan x="0" y="0"> </tspan></text><text class="cls-5" transform="translate(420.45 415.21) rotate(-52.03)"><tspan x="0" y="0">E</tspan></text><text class="cls-5" transform="translate(430.85 401.84) rotate(-56.55)"><tspan x="0" y="0">g</tspan></text><text class="cls-5" transform="translate(439.8 388.36) rotate(-61.22)"><tspan x="0" y="0">o</tspan></text><rect class="cls-17" x="7.82" y="262.49" width="505.75" height="3.94"/><text class="cls-7" transform="translate(165.02 75.25)"><tspan class="cls-13" x="0" y="0">E</tspan><tspan class="cls-9" x="21.76" y="0">S</tspan><tspan class="cls-12" x="42.28" y="0">T</tspan><tspan class="cls-16" x="59.71" y="0">. 2018</tspan></text><polygon class="cls-8" points="252.98 257.36 246.15 267.01 249.09 272.37 265.05 269.6 268.23 267.31 261.51 262.42 256.16 258.01 252.98 257.36"/></g></g></svg>