<?xml version="1.0" encoding="UTF-8"?><svg id="Layer_2" xmlns="http://www.w3.org/2000/svg" viewBox="0 0 213.78 213.85"><defs><style>.cls-1{fill:#fff;}</style></defs><g id="Layer_1-2"><path class="cls-1" d="M132.75,55.49h-51.8c-14.03,0-25.46,11.43-25.46,25.54v51.73c0,14.11,11.43,25.54,25.46,25.54h51.8c14.03,0,25.47-11.43,25.47-25.54v-51.73c0-14.11-11.43-25.54-25.47-25.54Zm-25.9,82.69c-17.22,0-31.25-14.03-31.25-31.25s14.03-31.32,31.25-31.32,31.25,14.03,31.25,31.32-14.03,31.25-31.25,31.25Zm33.71-56.43c-4.34,0-7.89-3.54-7.89-7.89s3.55-7.96,7.89-7.96,7.96,3.54,7.96,7.96-3.54,7.89-7.96,7.89Zm-33.71,4.56c-11.36,0-20.62,9.26-20.62,20.62s9.26,20.55,20.62,20.55,20.62-9.26,20.62-20.55-9.26-20.62-20.62-20.62Zm25.9-30.82h-51.8c-14.03,0-25.46,11.43-25.46,25.54v51.73c0,14.11,11.43,25.54,25.46,25.54h51.8c14.03,0,25.47-11.43,25.47-25.54v-51.73c0-14.11-11.43-25.54-25.47-25.54Zm-25.9,82.69c-17.22,0-31.25-14.03-31.25-31.25s14.03-31.32,31.25-31.32,31.25,14.03,31.25,31.32-14.03,31.25-31.25,31.25Zm33.71-56.43c-4.34,0-7.89-3.54-7.89-7.89s3.55-7.96,7.89-7.96,7.96,3.54,7.96,7.96-3.54,7.89-7.96,7.89Zm-33.71,4.56c-11.36,0-20.62,9.26-20.62,20.62s9.26,20.55,20.62,20.55,20.62-9.26,20.62-20.55-9.26-20.62-20.62-20.62ZM182.38,31.32C163.13,11.94,136.44,0,106.78,0S50.64,11.94,31.32,31.32C11.86,50.64,0,77.41,0,106.85c0,59.1,47.82,107,106.78,107,29.66,0,56.36-12.08,75.6-31.32,19.39-19.39,31.4-46.16,31.4-75.67s-12.01-56.21-31.4-75.53Zm-13.46,101.43c0,19.97-16.2,36.24-36.17,36.24h-51.8c-19.97,0-36.17-16.28-36.17-36.24v-51.73c0-19.97,16.2-36.24,36.17-36.24h51.8c19.97,0,36.17,16.28,36.17,36.24v51.73Zm-36.17-77.26h-51.8c-14.03,0-25.46,11.43-25.46,25.54v51.73c0,14.11,11.43,25.54,25.46,25.54h51.8c14.03,0,25.47-11.43,25.47-25.54v-51.73c0-14.11-11.43-25.54-25.47-25.54Zm-25.9,82.69c-17.22,0-31.25-14.03-31.25-31.25s14.03-31.32,31.25-31.32,31.25,14.03,31.25,31.32-14.03,31.25-31.25,31.25Zm33.71-56.43c-4.34,0-7.89-3.54-7.89-7.89s3.55-7.96,7.89-7.96,7.96,3.54,7.96,7.96-3.54,7.89-7.96,7.89Zm-33.71,4.56c-11.36,0-20.62,9.26-20.62,20.62s9.26,20.55,20.62,20.55,20.62-9.26,20.62-20.55-9.26-20.62-20.62-20.62Z"/></g></svg>