<?xml version="1.0" encoding="UTF-8"?><svg id="Layer_2" xmlns="http://www.w3.org/2000/svg" viewBox="0 0 213.78 213.78"><defs><style>.cls-1{fill:#fff;}</style></defs><g id="Layer_1-2"><path class="cls-1" d="M182.48,31.3C163.11,11.97,136.43,0,106.89,0S50.67,11.97,31.3,31.3C11.97,50.63,0,77.39,0,106.89c0,59.04,47.85,106.89,106.89,106.89,29.54,0,56.22-11.97,75.59-31.3,19.33-19.33,31.3-46.09,31.3-75.59s-11.97-56.26-31.3-75.59Zm-18,49.22s2.11,33.45-19.52,58.02c-21.67,24.57-64.79,37.48-103.92,14.79,0,0,24.34,2.9,40.61-12.29,0,0-19.48-1.17-26.06-19.45,0,0,6.73,1.88,13.46-1.1,0,0-21.24-3.6-22.81-27,0,0,9.82,4.5,13.89,3.6,0,0-22.65-13.15-10.29-38.15,0,0,23.12,35.21,58.88,29.38,0,0-.98-1.25-.98-7.79s7.08-27.11,28.76-27.11c9.62,0,16,4.46,20.11,9.43,10.25-1.76,18.39-7.12,18.51-7.24-.04,.16-5.4,11.35-11.74,15.53,0,0,6.69,.47,15.3-3.13,0,0-9.7,10.45-14.2,12.48Z"/></g></svg>