<?xml version="1.0" encoding="UTF-8"?><svg id="Layer_2" xmlns="http://www.w3.org/2000/svg" viewBox="0 0 213.85 213.78"><defs><style>.cls-1{fill:#fff;}</style></defs><g id="Layer_1-2"><g><polygon class="cls-1" points="91.3 81.46 131.52 106.92 91.3 132.39 91.3 81.46"/><path class="cls-1" d="M182.52,31.25C163.13,11.94,136.44,0,106.92,0S50.71,11.94,31.32,31.25C12.01,50.64,0,77.41,0,106.85c0,59.03,47.89,106.92,106.92,106.92,29.52,0,56.21-12.01,75.6-31.32,19.32-19.32,31.32-46.08,31.32-75.6s-12.01-56.21-31.32-75.6Zm-15.12,98.97c0,10.2-7.52,18.45-16.86,18.45H63.23c-9.26,0-16.78-8.25-16.78-18.45v-46.59c0-10.13,7.52-18.45,16.78-18.45h87.32c9.33,0,16.86,8.32,16.86,18.45v46.59Z"/></g></g></svg>